<mxfile host="app.diagrams.net" modified="2023-05-13T15:45:50.781Z" agent="Mozilla/5.0 (Macintosh; Intel Mac OS X 10_15_7) AppleWebKit/537.36 (KHTML, like Gecko) Chrome/112.0.0.0 Safari/537.36" etag="-B2SuRWbbcf0bi3yJMhG" version="21.3.0" type="device">
  <diagram name="Page-1" id="68N1ibKb-hPyn0Pn5NYk">
    <mxGraphModel dx="1473" dy="1077" grid="1" gridSize="10" guides="1" tooltips="1" connect="1" arrows="1" fold="1" page="1" pageScale="1" pageWidth="1169" pageHeight="827" math="0" shadow="0">
      <root>
        <mxCell id="0" />
        <mxCell id="1" parent="0" />
        <mxCell id="B7DCt7BBjTlzGBBhd7W7-35" style="edgeStyle=orthogonalEdgeStyle;shape=flexArrow;rounded=0;orthogonalLoop=1;jettySize=auto;html=1;exitX=0.75;exitY=1;exitDx=0;exitDy=0;entryX=0;entryY=0.5;entryDx=0;entryDy=0;" edge="1" parent="1" source="B7DCt7BBjTlzGBBhd7W7-1" target="B7DCt7BBjTlzGBBhd7W7-4">
          <mxGeometry relative="1" as="geometry" />
        </mxCell>
        <mxCell id="B7DCt7BBjTlzGBBhd7W7-1" value="" style="shape=image;verticalLabelPosition=bottom;labelBackgroundColor=default;verticalAlign=top;aspect=fixed;imageAspect=0;image=data:image/png,iVBORw0KGgoAAAANSUhEUgAAARYAAAC1CAMAAACtbCCJAAABEVBMVEX////1hTadUCVMTlCbTiWYTSSxXCnrfzSnVSeuWyn5hzfnfDO7YivzgzaWQQXTsqHZ2drIay37yKf1fCL19fU9QEKMjY6hUiVFR0mrXS9hYmTS0tKhoqOvsLBbXV9RU1WDhIW8vL3n5+dsbW6Wl5f/+vabSx74oGj/8+r2jkKlpafi4uK7h2tAQkXv7+/6uYndwbD94s9oamvIycn82MDkz8N2Pxvz6uT+6dr2kEj6sX73mFWkXjnHnIR5env5qna2fVyrTgDsdBP7wZn90rfYrpXIaiupURfs29LFnYe8jXj1p3rAeVOVPwCPSyFvOxqpgWnBckHReD/ifzvozr7hk2DGg1mxck/IZiPUm3gqLTAn9q7NAAAJAklEQVR4nO2c+0PayBaACVGwqWiUgCEhL0KCgEQLxQdqdLePtbvW3a29e+/d//8PuWcmTyBRqKXcTc73i+QBzHycOXMmSAoFBEEQBEEQBEEQBEEQBEEQJAFr/MZadxv+77DG143yMYqZwhofFXe2ytXuzVsUEzI+urLtja0yx3EoJmRs23axSLQwDMcxExxKlJOdYpFqYShVDiOGEGrhGF9M97c8i7k7p52f0wJjibl5s+7WrQdrfPvTz5fvwMzMIPLFVDs5jBhr/KttlyrVKjN5/8Gei5a85pijol3cKFVo779sJmqBQ8wkZ14aZEouVYgI7uNmwiDyRlI3N1osi3T1qhhp2UuLFobJixZY+xy/e3NYuLITtMxZCbScZdsOrH2ufqlWu5eTRlK0JGo5u9s9ur15n2Ex1u6Gbb8iSx9ua+FB9OtV0QZjGRZjfdopbryivU/UkhgtRzDcDl5zpMDLnhjr6/7bc2uXamEiLczCWrJYx0Dx1ih3L3+7t2e0LDCIQi3ZWyud2DYdB9uby2o5jGsh1x3er7sv35Hdz7RnFU/LErmF6+zfxrUw1f119+U7AjklpiU1Wua1wIqxtJETLanRMj+IANSCWlBLYeHckm8tsWhhnku5OdKC0eLz7RN0jrQsUc6hltwPIowWH4yWRDDlJrJg3ZLvaEkcRAfFrQpHQS2elu0Hj+29j4+vX5d9O+CHy5WW2dzyuLdXOth8OD39/ffT09OHh+KrEhFULpcredIyEy30X6CYSqVSfv34cW97e+vg4YHoKZb2HstMZWtzw7bhyV4EZVgLM6slIBw9lTIBTME42is1/vjj9v7PP798eXx8rGRXy1y0zMHFki/Hdc6Es7vx3Xi8e/L16+G6+/IdWTBaUhx1sqQizpN1C2pZdBChFtSCuWUGjJZEUEsiqCUR1JLIS+oWztNiWYeH50CWFC0+E3k1f3z34+O/Puzv7787vrm8vOhyOVoThUugbvfi8vKyc3MzmUxuOh3QwDCvNosHjXKwiszRCrp84as4pnhGSGh0ydHSRnGjUc7B9ZYZLdzeZqNxf//XXx0SHxAgFRo/wSDKsRbYsG36W8X5qYlcncuFlqW/J8pxtDz5hUgutCz/PVHetCz4rWK+teQ7WjC3+GC0JIK5JRGMlkRQSyKoJREs5xJ5YcrFNdEsHEZLkpbL4/tidqPls03/oWn53yqeW+S3iqEW7ucsaTn7dHVQ/pZo8X7ZGkYL1z3O0pX/gnV31Jnsn19/2w9+fS1cN4O/EIcOCZ/s5WYiLtLCVbuTjN4XidxMoLhU3QJabnds0FK9OM6oFODsukhuPVFd5tYT491/241yxm9Gd3ddqlwcvz1MvH9LohYIsrOT7EZKwBn9Ghnv9pPI4re1yRWNHTtMuf9JjZZq3rTcXV+R+85xHHcx+W/yfec4KN7O193OH40FYn6pdjvv3lgJN28kkXKRz7sKW+MPMCUV5u6ASiOlyuRTCsXr+Fy0wMg6Ps+tlIAZLSTd5DdSIk4+25EWLtNl/jKcfbqyg9yCwycCZqUN799+KjlOtEmQ6bqS2UsHL+DuOn/F2yJYOHwQBEEQBEEQBEGQTOPwvLPyN+nzUwgFgfyJn9GKjvZX357nqatqe9XvIbRVKcZQLsjkrxA7pRc7rDf7q27RczgDUVT55897EUJdZGNooIXsiGtpxs4QRUlecYueQ6m5Ettb8Zt4WsQAFrSws1qoLwI91WytuElPI5is0RZd4fkzX/QuRIvZDOknazENQnMID9XRalv0DCNN6vPaqhtBtIhTIZmkRdT9NpG4UVbboqeB9tYLhaHYpi0UDEMQ5KZptmWYK0Z1022P/KbzPd009SbsL8jtEIUebRl1OGb0vccGvAxst0fTb8OKzfgbP6UFIpjVjBX1eCH6pgjN77HeUBZMke+pmgYxrDh1OszVJmm7o6hk4MMmfIhGkCFYVidT6cjVRDimmUSELKlOm6Uv0Yt6vZwWR2LZ9eZchdWgbbxaox+OYA7arK4YPUlUdfpgKGqksz1ocs8w2rBfLvB+gnBZlkTLSBtIbe8YnCqrWpM8U/Gf6UG1tJ2Wj5CqRQCcJjl5xdnuSQSdjCFo9YB+7hC9Yo8GgCrSLoOwQZPGlE6baajRZ+7obF2gx0z6ycquKPGghZUM+szhIAoPmnJVN0BO1sKqOgF0a+21VnS8JtKP1BhopHSBQeTNSY4rml6bXfK5yUFOdoaDoPQTYP4i2QTizY8KmRUV0CL6Z/QG9bBvU3WLyI5StLDB6FSVdQYLNN3T0Bqy5KOFQeRNFxBFfufq5IFAynWCHEWLwg5JkECHh/4eeGiSaPEtGbVZLWHdkqZF86pccm59jeHiSGJ9JAMjVxy2iBYvx4AW1u9+PfDj9GVINWHiNDQvSFpmNPEqA00ALX4hNqfF7QX0U7S4fQJPC5epBP1jgQJBUykanRHTtcht11TFmqT5WnjVt9GXxHAqhaHYT9eyeN1SUOBsd33hoovRcCZtStPitGH+hamI7/t5VJBqda9PS2hZeIIu8GudoWUJ5h2fOgvrxTQtxoD1ik7H0+Lo3sxVoIMoXH/3Bprz3bSoa9PSY6VwAQ9TspKmBRKw7m35WpqsGjwxnnJ1L+UuPojiO6YGERwbrnpVnwbMwnq0MRR1J02LG3TJoLnFYAdRpaaIbDRB957QwrpKCO9p6QXbUOnQlMvT/F+Hknrlq9dURlMLD9K99GihYSUYKpSf8DyxJ/hjD0YRVHGkfhMMSXRbT2mJoXhawkoG8mt0YUFj17mChnpMil3U4El1npJbQJkJ9byuuaroGiarmX65qvM0Q2l1Q6lrokSL/5doCXdIa6vn+lotfrFScGusPPzbCDZ8LTqZcpwmWwNEvd8WB7UYdDBB1U8es6Smh+7W/LRj/K1HWvTaFKBlahvCrB1tabCC/zEOEhBmLm23YLsf7OrzrWBvi56r9GB+BkFG05i+Vl0gF8nhqCI7/qv6n7PD96dePI7jXeKOLmpPX+JurbX0XwrBb2pyi4V/TkcQBEEQBEEQBEEQBEEQBEEQBEEQBEEQBEEQBEH+OfwP2DFyUuho7DgAAAAASUVORK5CYII=;" vertex="1" parent="1">
          <mxGeometry x="340" y="131.63" width="155.13" height="101" as="geometry" />
        </mxCell>
        <mxCell id="B7DCt7BBjTlzGBBhd7W7-34" style="edgeStyle=orthogonalEdgeStyle;shape=flexArrow;rounded=0;orthogonalLoop=1;jettySize=auto;html=1;exitX=1;exitY=0.5;exitDx=0;exitDy=0;entryX=0;entryY=0.75;entryDx=0;entryDy=0;" edge="1" parent="1" source="B7DCt7BBjTlzGBBhd7W7-2" target="B7DCt7BBjTlzGBBhd7W7-4">
          <mxGeometry relative="1" as="geometry" />
        </mxCell>
        <mxCell id="B7DCt7BBjTlzGBBhd7W7-2" value="" style="shape=image;verticalLabelPosition=bottom;labelBackgroundColor=default;verticalAlign=top;aspect=fixed;imageAspect=0;image=data:image/png,iVBORw0KGgoAAAANSUhEUgAAARYAAAC1CAMAAACtbCCJAAABEVBMVEX////1hTadUCVMTlCbTiWYTSSxXCnrfzSnVSeuWyn5hzfnfDO7YivzgzaWQQXTsqHZ2drIay37yKf1fCL19fU9QEKMjY6hUiVFR0mrXS9hYmTS0tKhoqOvsLBbXV9RU1WDhIW8vL3n5+dsbW6Wl5f/+vabSx74oGj/8+r2jkKlpafi4uK7h2tAQkXv7+/6uYndwbD94s9oamvIycn82MDkz8N2Pxvz6uT+6dr2kEj6sX73mFWkXjnHnIR5env5qna2fVyrTgDsdBP7wZn90rfYrpXIaiupURfs29LFnYe8jXj1p3rAeVOVPwCPSyFvOxqpgWnBckHReD/ifzvozr7hk2DGg1mxck/IZiPUm3gqLTAn9q7NAAAJAklEQVR4nO2c+0PayBaACVGwqWiUgCEhL0KCgEQLxQdqdLePtbvW3a29e+/d//8PuWcmTyBRqKXcTc73i+QBzHycOXMmSAoFBEEQBEEQBEEQBEEQBEEQJAFr/MZadxv+77DG143yMYqZwhofFXe2ytXuzVsUEzI+urLtja0yx3EoJmRs23axSLQwDMcxExxKlJOdYpFqYShVDiOGEGrhGF9M97c8i7k7p52f0wJjibl5s+7WrQdrfPvTz5fvwMzMIPLFVDs5jBhr/KttlyrVKjN5/8Gei5a85pijol3cKFVo779sJmqBQ8wkZ14aZEouVYgI7uNmwiDyRlI3N1osi3T1qhhp2UuLFobJixZY+xy/e3NYuLITtMxZCbScZdsOrH2ufqlWu5eTRlK0JGo5u9s9ur15n2Ex1u6Gbb8iSx9ua+FB9OtV0QZjGRZjfdopbryivU/UkhgtRzDcDl5zpMDLnhjr6/7bc2uXamEiLczCWrJYx0Dx1ih3L3+7t2e0LDCIQi3ZWyud2DYdB9uby2o5jGsh1x3er7sv35Hdz7RnFU/LErmF6+zfxrUw1f119+U7AjklpiU1Wua1wIqxtJETLanRMj+IANSCWlBLYeHckm8tsWhhnku5OdKC0eLz7RN0jrQsUc6hltwPIowWH4yWRDDlJrJg3ZLvaEkcRAfFrQpHQS2elu0Hj+29j4+vX5d9O+CHy5WW2dzyuLdXOth8OD39/ffT09OHh+KrEhFULpcredIyEy30X6CYSqVSfv34cW97e+vg4YHoKZb2HstMZWtzw7bhyV4EZVgLM6slIBw9lTIBTME42is1/vjj9v7PP798eXx8rGRXy1y0zMHFki/Hdc6Es7vx3Xi8e/L16+G6+/IdWTBaUhx1sqQizpN1C2pZdBChFtSCuWUGjJZEUEsiqCUR1JLIS+oWztNiWYeH50CWFC0+E3k1f3z34+O/Puzv7787vrm8vOhyOVoThUugbvfi8vKyc3MzmUxuOh3QwDCvNosHjXKwiszRCrp84as4pnhGSGh0ydHSRnGjUc7B9ZYZLdzeZqNxf//XXx0SHxAgFRo/wSDKsRbYsG36W8X5qYlcncuFlqW/J8pxtDz5hUgutCz/PVHetCz4rWK+teQ7WjC3+GC0JIK5JRGMlkRQSyKoJREs5xJ5YcrFNdEsHEZLkpbL4/tidqPls03/oWn53yqeW+S3iqEW7ucsaTn7dHVQ/pZo8X7ZGkYL1z3O0pX/gnV31Jnsn19/2w9+fS1cN4O/EIcOCZ/s5WYiLtLCVbuTjN4XidxMoLhU3QJabnds0FK9OM6oFODsukhuPVFd5tYT491/241yxm9Gd3ddqlwcvz1MvH9LohYIsrOT7EZKwBn9Ghnv9pPI4re1yRWNHTtMuf9JjZZq3rTcXV+R+85xHHcx+W/yfec4KN7O193OH40FYn6pdjvv3lgJN28kkXKRz7sKW+MPMCUV5u6ASiOlyuRTCsXr+Fy0wMg6Ps+tlIAZLSTd5DdSIk4+25EWLtNl/jKcfbqyg9yCwycCZqUN799+KjlOtEmQ6bqS2UsHL+DuOn/F2yJYOHwQBEEQBEEQBEGQTOPwvLPyN+nzUwgFgfyJn9GKjvZX357nqatqe9XvIbRVKcZQLsjkrxA7pRc7rDf7q27RczgDUVT55897EUJdZGNooIXsiGtpxs4QRUlecYueQ6m5Ettb8Zt4WsQAFrSws1qoLwI91WytuElPI5is0RZd4fkzX/QuRIvZDOknazENQnMID9XRalv0DCNN6vPaqhtBtIhTIZmkRdT9NpG4UVbboqeB9tYLhaHYpi0UDEMQ5KZptmWYK0Z1022P/KbzPd009SbsL8jtEIUebRl1OGb0vccGvAxst0fTb8OKzfgbP6UFIpjVjBX1eCH6pgjN77HeUBZMke+pmgYxrDh1OszVJmm7o6hk4MMmfIhGkCFYVidT6cjVRDimmUSELKlOm6Uv0Yt6vZwWR2LZ9eZchdWgbbxaox+OYA7arK4YPUlUdfpgKGqksz1ocs8w2rBfLvB+gnBZlkTLSBtIbe8YnCqrWpM8U/Gf6UG1tJ2Wj5CqRQCcJjl5xdnuSQSdjCFo9YB+7hC9Yo8GgCrSLoOwQZPGlE6baajRZ+7obF2gx0z6ycquKPGghZUM+szhIAoPmnJVN0BO1sKqOgF0a+21VnS8JtKP1BhopHSBQeTNSY4rml6bXfK5yUFOdoaDoPQTYP4i2QTizY8KmRUV0CL6Z/QG9bBvU3WLyI5StLDB6FSVdQYLNN3T0Bqy5KOFQeRNFxBFfufq5IFAynWCHEWLwg5JkECHh/4eeGiSaPEtGbVZLWHdkqZF86pccm59jeHiSGJ9JAMjVxy2iBYvx4AW1u9+PfDj9GVINWHiNDQvSFpmNPEqA00ALX4hNqfF7QX0U7S4fQJPC5epBP1jgQJBUykanRHTtcht11TFmqT5WnjVt9GXxHAqhaHYT9eyeN1SUOBsd33hoovRcCZtStPitGH+hamI7/t5VJBqda9PS2hZeIIu8GudoWUJ5h2fOgvrxTQtxoD1ik7H0+Lo3sxVoIMoXH/3Bprz3bSoa9PSY6VwAQ9TspKmBRKw7m35WpqsGjwxnnJ1L+UuPojiO6YGERwbrnpVnwbMwnq0MRR1J02LG3TJoLnFYAdRpaaIbDRB957QwrpKCO9p6QXbUOnQlMvT/F+Hknrlq9dURlMLD9K99GihYSUYKpSf8DyxJ/hjD0YRVHGkfhMMSXRbT2mJoXhawkoG8mt0YUFj17mChnpMil3U4El1npJbQJkJ9byuuaroGiarmX65qvM0Q2l1Q6lrokSL/5doCXdIa6vn+lotfrFScGusPPzbCDZ8LTqZcpwmWwNEvd8WB7UYdDBB1U8es6Smh+7W/LRj/K1HWvTaFKBlahvCrB1tabCC/zEOEhBmLm23YLsf7OrzrWBvi56r9GB+BkFG05i+Vl0gF8nhqCI7/qv6n7PD96dePI7jXeKOLmpPX+JurbX0XwrBb2pyi4V/TkcQBEEQBEEQBEEQBEEQBEEQBEEQBEEQBEEQBEH+OfwP2DFyUuho7DgAAAAASUVORK5CYII=;" vertex="1" parent="1">
          <mxGeometry x="340" y="291.62" width="155.13" height="101" as="geometry" />
        </mxCell>
        <mxCell id="B7DCt7BBjTlzGBBhd7W7-32" value="" style="edgeStyle=orthogonalEdgeStyle;shape=flexArrow;rounded=0;orthogonalLoop=1;jettySize=auto;html=1;" edge="1" parent="1" source="B7DCt7BBjTlzGBBhd7W7-3" target="B7DCt7BBjTlzGBBhd7W7-1">
          <mxGeometry relative="1" as="geometry" />
        </mxCell>
        <mxCell id="B7DCt7BBjTlzGBBhd7W7-3" value="" style="shape=image;verticalLabelPosition=bottom;labelBackgroundColor=default;verticalAlign=top;aspect=fixed;imageAspect=0;image=data:image/png,iVBORw0KGgoAAAANSUhEUgAAARkAAAC0CAMAAACXO6ihAAAA+VBMVEX///+IU+WTW/CNV+qFUeKPWOz8+/6BTt6GUeN+TNuUXfKZYPeZYPYwMDCMVuqdY/soKCgcHBzMzMwiIiL38/0nJyfm5ubx6/0tLS3u7u7GxsYzMzMAAAB5SNaamppHR0fv5v08PDyFTeWzs7PXxPlZWVnl2/nW1tYWFhaqqqrr6+tcXFxNTU2Li4t2dna8vLzezfuxk+xsbGzEqvWNUu6xludxcXGCgoJ/QeSVYey6m/afeOh9R96QkJCdbu6pd/tuM9StifCXZu3Lt/HTuf+cXf+JTe2rfvaxive5lfiqf/Tp3vvBo/bEq/Pf0fiYa+qmhuaPYeNlJc9586h5AAANzklEQVR4nO3cDVvayrYH8FFKUNtw80LChHCICWLCu6Y5UhQ8V92XVrfa7vv9P8xZayYJCeLu7q7n6DOd//OIAsaaX2fWvCQtITIyMjIyMjIyMjIyMjIyMjIyMjIyMjIyMjIyMjKi5fBF03jt03m5KPPL7+Zffz2/vfb5vFyUT/V1qtUqfOw+zfst+Z8t+b+Pr30+LxeQqVQq9WqlUk2z9jg4wI80HyDv3/OH52AEk6n8AM2H79AIJvMjNN9pNaLJvByNWDL1H6P50w4lnsxLtRqxZHbqL9dqhJP5QZrnW41gMj9O82yrEU3m5WiEk3mxDiWezFaaZJVspUlW759rNQLK8AGqQFNP6vfH51todudHj59XyfutrUZEmdQGH4Cmnlw+KIQ0L6tPaJJzOOrxy4dkG42oMnmHWs0fmvhm87L+pNYwGaI83ibJUxoxZTKaevD1YwPP/UEBmSdlGGSa9+h2ePUBbUo0gsowmvrq+jc4b+Xo9tMpk9mkQZkPBx9/h2OPz98n70s0osoATVBh/ejoLgmScy6zQYMy893k+vwQDv79FkvxmkZYmb3rB+hHjaPLVb1eBZlDJlOm4TLweXV+TFi7KdCIJbO3lpk/witHF0GA9WYtU6JJZbAWf8B2Q24LHUowmZwmuGiQkyDAagM0eW8q06xlwCb50iRHyboMiyXzLqdBmdMgG7yD07VMgaYoc/B+dcJkMhrBZHKaTIbTlGSq22UOEpRZz2vEktnLabhMNq9hMgEuFNiFKPjEYLbIrNdQgsnkNKlMSoMyt5fQeD7f3V1Xq5d3d5e7u9d3nz+izG5ZJqMRS+ZdTpPJcBqQgRF8Xp/DQH6fzGFqd5Mk7OosyuwWZfKVt2AyOU0uw2hARmk+gsxjs3mbHBw1mx/ryX2z2eDzmd2yDKcRTSajWcsgTXBKjutYj5MkgUIDj8nubh0meLzOpCvvVCZtNcLJpDQFmR0uU2GbEtXiLh+vwPnKG2XWu3ziyXCaosxOLpNtZaULhVQmW3kzmXxvOBFPhtGUZHa4TE5zd5kwmkwmXXlzmYxGRBmkeSozr+N+DTSX+vz3xj2Wm2ouw1feqUxKI6QM0Oxtl7mdQxX+Qsjd3eekKMNW3pkMpxFTZqPOZL1p9UBO5vXVDVHmh80vq6LMus5kNGLJ1HKaLTIBbkw8XtfrDXJzpeCUryizW5Q5EFiG96a9osxXgDmBNRSoXCVXMBv+yGTyBWZR5kA4mdqGzN5apn5PyBHOh4/I79f15HOTNC6flzkQTqZWkslX3iCzA22lebWqfz0kN0E9uVHI8fVTmfWFXaFk/reW06Qy2cqbVeBvCmncBldE+RLMjwg5vOa9qVqS2RVXhtPUeG/KVt4osxNcNoHjhDRXAfaspJ7KVNcyq/U1bwFlanmbWeQrbyazE3x9vPikYGeq3PwGq4VMplqsM/mmhIAyaMNl8pU3l9kJguCWkM8BjFAJu9iSylTzNrO+HUBwmWzlncqAzWO66q6ziy0gk19s4TLrTQkhZWq8zizylTfK8GHq4uQ+yG4HKMhU8wqcb0qIKVNbZDJ85b2WCYL8ikIlKMhUc5lsU0J4GbbyXstkG6DsYktRppr2pnxTQiiZ/TXNWiatMzu4itoL0kcsM8HqFGUqT2T4psQvIIN1Rjm8vdrZ27m6+vZ1p3Lx7fayXr+8vbphMpUnMmxTQiyZ/f1tMu/YVZXmfG/eJOQ8mB8TmNMED3gM9qaUpigjXJ1ZyyxKMotTRWkcg8xxo3EaVE4ajYcguG+wqyr1jKYkI1yd2c9tNmWO/5jDlG/+xzXMa+bX13N8nN+z3pTSlGXE600ZDZOp5TJQgfdwE3SvcIsNXlJgdYbTMJnqryJTK8m8K7oUZDgNl6mKLIM2+6lMrSDzhIbLZDSpTFVwmUUmUyvIbNKkbYbTZG0m35QQUmZ/n8l8WqTry7zOlGnyOsPu5Vs9pjJV4WUOHy4+LXKZd3vvNmlyGZgOV26PGuRktb4rS1SZ/Rre26k0bi7eLRY1JrO+HWCjzgT166vHBswFyV1SuB1AVJn92j+P2D84OL65evcJ5jPYZjZoUKay+np6gv85hnL88Dkp3Ckhrsz+YvH12wm2hEbz5oGkMiUalLl/ZH6HHz/Pk9I/FRNL5h8lmv3aYrH4dnLI3sxkijQgg2kcP1x/4svvAo1gMmUatoBa/HF6A73lcS+/FLVXuNgCb9xfVPJdvgKNaDKbrYbjLC4e/ihc2c1o9nbuzytBEJT/qVhFUJltNKizvrBbpAnyG9aetBrxZJ6hqW2lebIBuqYRUOaFaESUeVqG/w6NkDLPt5otZbhoU6QRU+YlWo2gMn+v1pRajagyP1+GhZX5aRpxZX6WRmCZn6QJBJb5qTJcF0rm/xd/I8Ez+SSSzOk//3bun+T85LXPR0ZGRkZGjCi2/dq/whtNXzP7r/07vMk4Z5bVe+1f4k0mpKNYC1/7t3iLWUb9vt7hXzsD+AgNrDtKaIQOe3EQGq1QYW9nYa/bhsFBFXwBvks0XjdyDHfITzYe2f2eT0djMh361I/xjJcjT9O8GE7bmfUww+EZwScjqvoTRAyHY3s5cqm/dF71TF44rQjOM9YN9sTTXG/WmWlmT510lr4+g9PunY37nZ7pAsY4hpz5WJZCzxyOO7Fugpihutpo1jlzI6Eq+VjvEtKJZuyJZy6xEQy1IfaMvg5NybGxI9m+afDepBi+2SJkZmKDciZ6DDKu24duSCbm5BVP5KVjeyOwGOg6e+bpU/zU0dkpGtEw7x5nyMEO6GlA6UQ6qyq27xsgM7ILhwmSqc5ayxBbznMyYWgPJplM3F7CY0vX2DMnNruCysTm2Gi1WjPzDDvNNpnpyPd9z9e4zBLLEoJ67KlzFgkqY5u0jYk0H3vHFpmp5ne63c7IYjJ9jTejqe6z48WVgSJrh5iYrRC2yEz40oHXmZZq8jVWGOl8hjPUpkLKKD1OQUjXHJFtMo7HGosSo0zo+9lszudgUw1QRJQxXC9dZ/PB5qkMkMwUYo9dqDNOrE1ahmG0YADvR97UIS0vWhIhZcbtWfblEL/021ymzcpsq91ziOHrVNOGcbtFbKqbOiSCGqN0VJ1SU8PjDZP7dtrxq5zFfyDKtJuvdcIuoEy7Nv+alVu7P4ViEi7j5dQJ4R2nm4bxGcs4nrXYNLA7dQqH/UJRnntdee4dGRkZGRkZmZ8KLKmzCW+LhW/uEgUW26VtSiXsQ+xfZkietvWIbx0QQ2eJ3DFO9GBqqxemaE7fi0xI5G3O23DTXESuM+q6Om80huu6mmlZqtVTcF9OVY3825QzU6WWBe/qm7u6zpAOhdoD5wl91XetJfvacFW322r1XdVcbsgoE9OlZ/Bmqz/rbvwI29VElOlSa2nRHjszkPFxS3us0dgpy4Sqao7TLsO+VzGg5vDlVMukwzC9CD7lLyq2zerRgL8Mn/CgsAvvso7KnxPHfrvXzp1Y8+0RdVntQBn8TadwqoOyzExL9dJ0XKpZGlX7xB6p0AldFWuV0dMsU1M7xO5R3Kixeyru39ge7mxNXRUP0cZEianGt5np2710bqtarHQs3p0ymf5TGV+1OsXj4rbqeS5V3UFomq5L9baL/U+jw9in1pSMLTz30FWtMW5HIGunTT3P11RqkK5GETL0aDT4757vX0/f1DokpHSEDYLJKMpgpOJplWRM18K/XRy2+1343m7LcRx7SPUuDFoW9KYBnOLEsvqKYvjakEzhR+KOoEp7+Icga2s6gGPOqNnBRhTBXwF80/D1Tv078ahrkEGPsvEZxybP86CT0HBDRldV3H1pw7Ctj/La0LewN3RNPjbZHmX74z1KiQPIIYm1IYVWGKe9FdMysX3O8A4UBR7f7M4NFFZs1ktNww1JNmpbMDSrOPyUZVy80EbaOgxRPSZjdLutsVaUwWFuNpnMfFWH7qYBpWr2fTolWY2CCtzqs55r6HRCnBEdvdkC3NFUbzabDVUoGHzUnsxmyy47j5KMm9UZJWIyhhdF7bbpbsioEUTXXaziVseOLOdMX9oRVF34eSM8ROdThBH17DDSlq9x0n8lDrRzCh1EU13aXY/aPCWZMzaQ4yFMZjDS6LjVjWlZho4Mtr6Awwa+NumYQ9LRz/oW3jjgxFCUp9MJZTIdkxodi77ZzmRoqo/3McQeq7nZ2MRTkmnx5pHJTFllTetMP68zqpYfrUysXg8mjC3VG1JoQ6yvkazOwLBkjUdYpN9olpbGL3j0TdWz/0wG5j2qNm6FIUzrQKbLhh6FFVLS0lVvaoesYeGKywlxNteFVYfVwrKsss6EXRU+ZTOEiea7Zmki8KZCVYtP9W3qskv0z8pAlbBUzfV9X9V6zFCdzHoqa0i2pqq+Z+ENbJT6veHIx2lc6KnqKMTZnMs6DcwnaTyLVZXLTE1XpW+2/k7bkcsvnzjDCBbchh6ZBRktigp1YDD2dByztV4fus7StMxoNDHbbJYDtYrdT2IMIwu+NNm5w4/E0jRuR/yyUxcP8Wdue8x+HhDP3uwKfRCG2fYBXsXGblDYTlDgWWmhaLdwmheyGq0Y41nfhgPYMxiO+RLKmS5n4z5fFMGPtPkfkmqHy1nHVrKnsN7YXJrKYBSNjt7syuD1Yk+7Z9Saff8bf7nAgolqvoB7Oj8dw2ubsWi3Cb9IFGcweLPjkoyMjIyMjIyMjIyMjIyMjIyMjIyMjIyMjOD5N8dTm0fPTuBrAAAAAElFTkSuQmCC;" vertex="1" parent="1">
          <mxGeometry x="132.56" y="130" width="162.74" height="104.25" as="geometry" />
        </mxCell>
        <mxCell id="B7DCt7BBjTlzGBBhd7W7-12" style="edgeStyle=orthogonalEdgeStyle;shape=flexArrow;rounded=0;orthogonalLoop=1;jettySize=auto;html=1;entryX=0;entryY=0.5;entryDx=0;entryDy=0;" edge="1" parent="1" target="B7DCt7BBjTlzGBBhd7W7-5">
          <mxGeometry relative="1" as="geometry">
            <mxPoint x="730" y="273.12" as="sourcePoint" />
          </mxGeometry>
        </mxCell>
        <mxCell id="B7DCt7BBjTlzGBBhd7W7-18" style="edgeStyle=orthogonalEdgeStyle;shape=flexArrow;rounded=0;orthogonalLoop=1;jettySize=auto;html=1;exitX=0.25;exitY=1;exitDx=0;exitDy=0;" edge="1" parent="1" source="B7DCt7BBjTlzGBBhd7W7-4">
          <mxGeometry relative="1" as="geometry">
            <mxPoint x="600" y="377.12" as="targetPoint" />
          </mxGeometry>
        </mxCell>
        <mxCell id="B7DCt7BBjTlzGBBhd7W7-4" value="" style="shape=image;verticalLabelPosition=bottom;labelBackgroundColor=default;verticalAlign=top;aspect=fixed;imageAspect=0;image=data:image/png,iVBORw0KGgoAAAANSUhEUgAAAQMAAADCCAMAAAB6zFdcAAABC1BMVEX///+MMiPhU0MAAAC5RDSIMSFeHxnysKnlVETCRzisPi+GHgDgSDTl1ND43NefOSrOTDyJKxvgTj6lZVjnfm+BgYFoaGixsbEvLy+oqKjFxcWQkJA3Nzfw8PDf39+JiYny8vJycnLR0dFISEigoKB3d3cdHR3MzMzj4+O/v7+GIg1UGxZaWlo+Pj4oKCjZ2dnxuK91KR7Fn5by6OWIJxVmIxvvoZjxq6PqiHzjnpXiWUnfQSxPT09gYGAfHx8PDw/AXU/Ho5vYrqf30MrbxcCnLhvka1y5iX6aTkC/OCX75+PjY1Pzw7zTtrCvdmmUQjLEe3GsXVGrXFDJV0eCDADrlYjneGigXE/Pin9vaWJNAAAK9ElEQVR4nO2de1viSBbGIcEVNbYShUAQEm4SbBRbbHVUZHra0e51+zKzts73/yRbpy5JJRWuxgWTev8ilaRS51enTl2Sp0ilpKSklkH2ye+riy7DYmWfnB5kNOV40eVYnOxP6YP0SiaraA8JpQA+kE5jBoqeSF/of8oBAcoASbtMGAXqAzwDRCFJvtA/yTECPIME+YLNE/AzSAiFvp9AkAGmYC+6kK8qO0hAZBBzX+Ai4TgGsY6OOxsCgXAGinK1u+jCvpJ2clMz0CUDyUAykAwkA8lAMpAMJAPJQDKQDOLHoP/H5/7osxEx6N/+YUde8qhkn5z+qel3Z5/t8PMRMLBv77+cbnxVlvTdVB9WSNaziq5r2t3Zf/4tXvFCBn1k/8bGaS69spbVlFX71S2aVfY9rBGtrBODgMPDRZDDCxj0v33/cQD241vWFFhrOv//WTeN7JMDvErGGFAOV5cXxxyHORlsfvuefmT2uwyAwjK1iE22TsgzILZo+sPu8Tty2RwMNj/tQP0HblmjV2lKSItbkDbZQqHAgHDQtN3Vd/aMDOzNk52NjYOQe1wGivZu0aa7Gs+Acrjc/RGCYASD7MNOOtT+N8wAc9ianoGyPcL+N84gOxODFckgUQzSa9mwexLEYOXDx3992FpTskEQCWEA9mO9f/+RcEgUgxXXfqb37/3+EHMGgv0ChzgzWBHrfxSHuDJY/4BMfD+egcthNIK3zACcfHt9C3nCWBAfP3wY4wNvnQHGACDWttJhLgHWTzA/Dgx4EhnOJSZXftwYuCTAJaas/HgyoCAyswGIIQMlm5nRCyQDyUAykAwkg7gywEMlJYNm0iszDRFiwYAYv72WWd/aSmeU7e1t9Gt6FG+aAVkhwbanmclkTZWjQs7ElcE2rveAif51ZYICsYjp3BnWUEIMCltbz8Z2DUW+X5AMJAPJQDKQDCQDyUAykAwkA8lAMpAMJAPJQDKQDCQDyUAySEkGIMlAMgBJBpIBSDKQDECSwUzf7k/FIBvb9874uwLhexOeQZZ8yEy/U4glA/dzE/5jDGBAv08hyZM/yXnbDDgWCvv0JjPtJzgxY8D7RWbWz9JixkBJ/PeJkoFkIBlIBpKBT7quZU5zY/a8iDcDXdeVh6eLs/Pffv71Iz0LiDgwQJWPzN/9dXa+yoRA/EQgpiPxxhlA5V9C5a+G6fyfn39P4RJvmsHl3e4o8zkQqG18SY8LlG+YQfb3n7+tHk8gADpePb/4bzzXD7JbudP0X4jDeJ1dPF3qekzXUPBaWi6X+/H3SA5nF3eXEDJivJZGr8ohfxA5oPpXiP1KAhgQDjmOg1f/TElgQP0hhzhc3Cl++5PEgHDICPYnjUHi3i8knYGuaTMx4DdQjQMDXbvSns4+P8+wl+jT7f3z4wgOy8ngcTQDVP/K0zku66x7ytq3J8+5kB1FPQZXy8PAvqdb3wYYoPpXdlfdbbfn2VsYcdg5ffRzYAw07cwOL9BC1L8/OPUzgF1kL4599TT3HtOwwzDnD4SBrv8as7f7QtT//nhKGcDu0krAftBL9hq3EYccDRDAQLv6tTx7K3sCX1jPwq7Sv8J2W49gz/n+t+9fDg5OV9a05fMBpv79n6PsB0Xy3wP9b/c/vi6lDzDZ405G9h8UY5+y3ErG/3CMl2QgGYAkA8kAJBlIBiDJQDIASQaSAUgykAxA3x/D/mwpjIF+9WvRhX0tbT5viAukIgNd212etdLodfsl6AsCA/3qKc4EQEFfCDCIuQ8w3T7zvuBjoF8lggCI9wWOQUJ8gMnzBZdBgnyAifkCZZAwH2AiFDCDBPoAE1BADBLqA0y3zxtf3w4BxzTN9ivke/vPywiYVuH6umAZleAJp2N0qi/KWlBXRRIetGA5NdXVocmfadLUcoRFruAcm9FlGIVKqk8D94Rz5KWaYzKYTYRrMbL8opBB6r9QaxUa+GeXnnDgYL9Wrh1GCgHllkf5vUZEmFfYNWsOPSjDkUUOgEge/8KY7Gie10NZOXse6WUQ1EnZO2y75proR4umdvwXvUQtVR2myssVFVGb3+OPLWZugS8ncuDDaJ6HnasaHdMI5LgOzyVAWLRV3l9Rz7FvR/E8g4QC1BiOvMS2aSLalWahO8j3SJLZ6nYLJf6RVaM2QGkWC0wVMyAWYSpGodsdWF7Acci5njVAyXWxTGByzZdyQ6u8algdNxExGEbivNeqepMifZGX+z6EXIv2QA149g09MNgl5qHXR5F+taMGRBy1UmDHQ3Yz4r6fghiEtdcLlslGzz+yfSlhRW8EWsy8cmjIBS+7dlOLyDcGri0NEpSIaG2WfdZixzVDGbT5FFq5iMGhwyULELoqPyQYobbXW7xMYAsedkJtOSwVMUC1VGx2Oi0oI1yU73Sa+yojjzsmy6w69RKuTnDoat6iKjebQ+ozPVzTRr1qQqynhqG7i+iCrmGS/IWxSR2jsQQ2QQTR9I2uy3Z4qkW3culoZQ+3O3uPEVM5YjU1EMFoGs5t6GXr3LBmg/MckkDQC3UE6mY3NSOUQ7VuNELvm0fgvyXyE1Xy0KbJRc4X8diUhp4OvbyjcpEhpZKYwQlCSQF+QJhh/TkZ48EPg7kOOxAH6mxSAAURJk1VcqJrC7fNI66/tTi7ilwZy1w1Q9SALrS5R4whOvL1KdSAQ5aRC5akA0Iw2+3iHB6Tp16XCxgD/yCWNBW14eum5lWFq++q6oVZKDpfcLfHUN1hBPf4AelaXIFzEcsDHX2FuofheR/K6Ib6TFBOqSFEUyLjMG9d4/bkhN04m8A+F3GDNXbMwB2BlbxknoGrqnEEXZ0n3MLJHR2eX8odhRj8Y8GNQhkg2e0ycwehF7RrfFCaXxCl6lS9vOeURc5XS/yTfAzqRrN2uI9LyDHA8522dy8ft2oklBu+5OJoBiDbrImegJVXp+hBJ6mnCrKFYpVUbojuMeAdlWdgFzlHLwdqyvIYeOtAExik2DBLrPKh+vJZTktkUBKKFcrAKbp3FDpdngGgcftYKxoGJHaL85lyoKnNIRs47nkCu46EYoUxIEtPjVqzDRbyDAo+/2yObgtjGFS7h8HeshLaGPxd9FwygnDBsHqwWGEMwNJrt4L3PAZlf/TyBz/sJDepiQzEKZM7lqu0eZvNlzNoBBsZWFAIFiuEQUX1jQhUtyeFa7nxAA44POUhibWT2gLURUpIGgRndsHDOeSowTUIPJCrpCYy8JvmuAzwrMk3fh36HmHSWDGJgdj6TZJS9XtINzRSziJL9CQYeDRTExn4Z2w1Vm24m/Evc+Z9z2DTjUkM6l50JqrcUGv3eKvrQiXOrCOxZzFoNzeBgcO3BTKyh4IORagO7xktFi8n9gu4Lxy4xpo3rP7hYWxu4gwF5LPKVEP6JFqTk2IiRJIuLmKPLjOkCNNavWOUXPXoewJ4G2LXD1UWOyf3jQ2c6U251OmU8KSbRVrIpAhxu4JzDs5XZ1QhLKDQodckBmRhpDHogm/ukR6Q9Jc+lWiO6JoGnn4Oq1MysBuBrIq0CDYelx5dk/MTxxXjVWGt2CfcpB2oUreTDx0jcetmZZxVeRSDlDF0j1mR/QyOQke8xj6fEzdcKISmzqV2K58vicnlfL5lpizunNnKt2x2gG4ivuNYuGKvmxVyk5Wy0Tm/WmRoYDfxvKdouWajZ7e8SGSFFgTNlyw6GC34FxDqZHjbaC7DywD7la713Rd+Y2Xe/KSkpKSkpKSkpKSkpKSkOP0P9sZ/6TWYKN8AAAAASUVORK5CYII=;" vertex="1" parent="1">
          <mxGeometry x="560" y="212.87" width="160.21" height="120" as="geometry" />
        </mxCell>
        <mxCell id="B7DCt7BBjTlzGBBhd7W7-13" style="edgeStyle=orthogonalEdgeStyle;shape=flexArrow;rounded=0;orthogonalLoop=1;jettySize=auto;html=1;" edge="1" parent="1">
          <mxGeometry relative="1" as="geometry">
            <mxPoint x="1062" y="272.78666666666675" as="targetPoint" />
            <mxPoint x="960" y="273.12" as="sourcePoint" />
          </mxGeometry>
        </mxCell>
        <mxCell id="B7DCt7BBjTlzGBBhd7W7-5" value="" style="shape=image;verticalLabelPosition=bottom;labelBackgroundColor=default;verticalAlign=top;aspect=fixed;imageAspect=0;image=data:image/png,iVBORw0KGgoAAAANSUhEUgAAAQsAAAC9CAMAAACTb6i8AAABF1BMVEX////8hzX9hzWiUSeiUSb/wpZCRUL/wpX/izY8Pzz9roI4Ozg/Qj/ufzOfTyYyNjKvVyeVlpWaTCUpLSn9gyzJaizIycipVSc0ODTmezH/9ezT09MnKyfQbS6bPQClpqWdnp11d3XWsqCfSBT19fVUVlTDYylsbmzj4+NJTEnt4tv/x5z+hifLoZCvsK9fYV/o6ei5u7m7gGKbSRv/28WfRwzEloP+l1L/pGn/7+T/u4v/q3T+sn3+l0/27er/za+HiocaHxoLEwu5inXql2OpWzTHhWSubErm0sj/oF3/gBndwrKtZ0G0dVX/pmz94c/RekPrdR/CXRvo1s7crJP/2bv/0anhnHPJgVnkpXjOjGTEdkuYNQBFX2YSAAAOh0lEQVR4nO2dC1va2BaGJYRITiIxhoFYqICE4SqXUrTaijgdZ1pt9XR67HX+/+84a+1LEjABgm0JkG+e4eGy2Zcva717bWCcra1IkSJFihQpUqRIkSJFihRpQTUOX//5fNmTCIEah8+uyoP+fuvthrthPcselPuiGN/bF4TrtXJjePjXWaD1DLPgA/4DXsRi6bWJjcbh34PybrqVfPn8yfSWwzdHf/9Dlj0URWrG3n4MzIilr89+yVx/qj4egRH9uJhNCgLYcXvhZwf48L4PTX9PXycTp8M4tUIkcSHEhPR/fum0f4JursplXJQY303SJbWEt15u3LzLDggfUr+TVm9/E/dSTlwIsdX34nAQJ1dXTKEXRELLy4ujAbVMRC+gkZCMPd1NiYwXmCSr70WZRnocvRDoFfb2ohy3vYB22FRI7qeYF2uRI4dllvY8R3zjokytoDlCmwo7qbXKER4XwM6gcQFe7K0TOx8VF7G1iwsqh51+cUHYKTJ2UspCXETs5DkSsTNiZ8ROroidjo7shuvPTjFiZ8RORxE7HUXsdDSNndbw1Gnox05x7dnZeHP4+v1V/8P5iwT72G9D2Zl8NzgYlPt9MbUjpNOt6yQactTfS20gO5NZfkbZoR9hCenrZGz/6e/ZzWNnktuztyPwGADFkk9Tq8vOYePm6K/bs8TF81O/D7e92JkU+XM7NiYJKn9LrSQ7rcbN8furcrm8m4aUb7WS5ye3Xu282JnkobK3w0OF3KAXq8fOBqUfLinLZi6kk14tPXMk+zBHyM1veyvIzgb/AD8OXvCM9/NiOjunx8UKsLPBi0SIiyS/iPPHBX2nR1ysIjsbnIjoBQddzKvl+rOzwYvEeJyE/hw5klpbdrpyRAieI1m/HFlJdrriImLnJDtjdlxYw8abm4uL53enT55sJDuF2M7O/s3h8ev377LlwaD8oYVKJk/+m+INN4adsd1UKgVVKBw+SRG1T78oF4SnqUeyc6VyhLJzl6+ZLnKfgQCOW2tfd06yM7bLHjIQ7LNFJu24WG92xt3sDBQXa81O4oVLnHfUCx92xj3YGV8Lds7KkU1ipxggRzadne64WD92ihE7UWNexLy9cNjpeOGwM+7HzriLnbGdvfhKsXOBHHHYOStHInaGnp3vn1H9eXt7+yeP8sX21CDsDOVnOf/2qXbS6TR+3vRYdnrFxaqw84Dxbh+Z5vbCl51eXpAPOlzsnOKFzc4QesF+HrHP8viXsDOk9YUTF8JYXGwiO39CXKxs3fkTeDGdnbEQx4VPjjxiH5nOTmH12PmI+mIedoayvojY6ShipyM7LoR52TnznLo345zqnM1Cdk49oFf9h7EzvobsXCBHgrAz3DkSsfNH7qkOO2OrGhf0+2DGzl/z/Uho2SmOs/Px35utLDuz2fIAf8O9IDu9vk8dZ2fM9/NO/NV4Mhmiv39hDd8cHv+dPfhwfd36ZewUBwcHH1rnLxL3dzP+isgSZDXuTk+ffCR/ysaDneIPZCf+EQxr2PgYQhfcsm6O37M/3ZGl5/AF2On1uxzGTkyKVuw2cbfshc4p6+PN66vyYEB/jRQoR/zY+VTE3zf9A92dJJ6fzp5CuDT8eNh8fgfTfi8+np2t+y1IiZv/XaycDVxPTu/u7i+u+v1+MHZOfJ8KaZF+dY+//lv2ghYQePD84lMzsY1KJM4+f7mKoyGuuBB82NlPiW52AiVjsZMXr84S2NH2dvPTp3sk9LJXOFNP0IP7T81tqgTMnqrZbCa+fv7yHQ2hNUE6dv7W/k2j6/fg6W9f3mGr/h7+92bpHbQB3+0S7bsJnoQyUJgHCeaBp2D6TRIh++dvX7462242v/Uf5kh6G1t9/fb9auf8lrTy6Y2pCZ6EK3n+/f4Zpk3jgHhh34w/IiGSoOvbRi8esDNN+2gSefcxMUBi+9WLZIhq8AOxL7779tWeva8X7pvm5yvKEB4XkBPC+Ww/x5xNvHqL7wuTF3B1xX7/6stXuKI+OfJQ0BSTAd64mwSAxN6+PEv4pITn2xNnL8+FtBDOMzusSoRs8ctxbz8SCTAECLLdDPS+xKsX5xBHsRCe2Z2jaF+8+hbIDrrNBGpPM8OpSkPlRdxdZkN4ZEm2JGZwbzYZH7ZobtuZ4RToofJCHPuIIs6yhdgxcyMI4EWzefYCjXD7EO64YDcI029niYDxPyUztklmjLsQxrjwEdlbfoAdEBAvT2KYGZ4KlxeTOeLc9Pvx758fZQcgwjMzVihHJrIFYLoAL+zMcK0+7DniHxd0a7Ersfm9cGXGlJBYtbigwRGwEoOy8gUWEQ9XH/a4mFf9PpxbZlbaTaeamkvh8mJGjoxnS5xni48Tc2bG6uaIyyiWLdvNh7wAVJJzxrTVhz1H5o4L+wbPLV/xJOKqKifPGasYF/+KQeKCu4XhYVdieAI/YQExY/Xhjosj/APwARV3Tvnb5AQuzI3KCQmt8zD9zxWGx9myGCxHXNnS/550CBEwPQRw4n7Zy5/Q8Ii4ESRH7JvUbjKIBWMPWidhcwI1PBqUF4oL9+fggeJCEK5DFxNcNDYWiotAWWFnx0mYODGpIVJ0ZjU+WX65visKRMywxgTX9Nj4YTmyAk6g2J4SIEdc3xXNmSPXJxfLXuacGh4Tiv6kuAgzMb3kmymPZ2fIKqt55ENRz7CgXlAixsbuTdysBDG9RLnxI3NkVZ1ADY/7ZY/0WJidq0NMLw2Py/NQdJ64WOGY4EKKPp4X6+AEiu2wj9lHhFZyHZxANY7L0yk6NUcwJlaZE5NqYGwsyM71cgI1fD2Fov5xAdmxbk6gcE8Jek5Nr11McDWOD8oB2LmmMcHV4LExM0fWkROT4hSdxU6ICWvZc/358qDoZFyseXa41QA34nHnq5JJdq5/drjVeH1Q9mHnBsUE1xhF7RzZtJjgclHUZudmENNLNkVZXLRimxgTXEhRzs7NzA63Gs8GfXE3uYHE9BLGRhQTXI2/miH6j6QiRYoUKVKkSJEiRYo0KQu07DmERJlLI19dxsCjeqUidZcxcgZGrvf4I6vd67XZC5okl5YwIctQVdUsLGHkraqsqnKHP+pemuYlvbssL9qmJElqZ3bDH66uBiNLWo09tAx4QO8uy4uOKsmSZOR+/chFRVJVSdHZw+V7UTNhWFmSR+xxDgQIz+ilNiV5ZjRqM5p0M+1iqaS3M/SVWs4l1ltPL43a3FdsAG/t9pwu3Kqoagf+lcgDK5eBADVrpCvmhQWzKDgXaazzLjSEiLJ6o1KbRZaV6xVG0CKzKPx0RTK6Fbg8bA+rG9plzapqiqxJNcSbJsumlsGX2ppmKrKsmJpEGFc1NFt/kPlVFWxgmhU6YT2v5QtbBcXE53qTI+dMyexBbNDOa5cmyRjoymJe9OowC9MossVXTRzf1Dpk6UXou7jVljW77xydnqxodqgFFIREFaYr8bmiLQWYhCpJch1WY+I9VUWn2qaiGYahqZJqoBlgGBE0kPJkcdAZtIDQz5PeYKGyXjVoF9rk1RrJkmGRsCRe/EHoAf1TL9Qqji3jU8SrHKyyXip1oL2MZhSw7xLr26gRL2QyPXiPNlrEChjVbJNEqdpeSEZdL1YVGKN+WS0WO3BPw7UVDD3XtbqZjiyRwG4XiQpoH64HntVGNatb0BgRwQvJzJcKxQremdiqLJWMWQdniUvdGr7N6na7ZFaSjGNX8Q72bdVVuUouCEMJeCEp2DdOTymiF3+MMjC9XAmeMBZJE0RFlwBUqXEvFDJruGxqpcbakMHs/qGNWbO76CnUyIIpKSP6jEafwbgoWXyYCRhCI4xFaGPSqmKcnWxsWLJa3yKpLHf54Bhi+EKV963iaHalCk88zMjZ6spsHQpdLh2KzKJnx0pbmVhIFdrYSAPkyRJOAzck5hBcbM0i61Ta9uLq40N3KKNqBt/QPfcRfNKAZlCJsMDVZTI4zphGWg5iR3H3jBm/QL3UNqmF3TxciHEvMhr3omfaXnQzBX0Eq3C8gJmopGqFKLaXO6LzLbrnO+FF12B7F/RG0t1nT6VeQCmidtpEeNUL7quHuSXTxlYOpleVHibkPIKJmOQOXGpaYthe5Gwv7Jn1OnmgU95weVEzoXSssSkxO8m1w8B3vKg98AJzg/QBl4Ny39uLPPGCAMQgAmAbY16Aq9SLXBV2IZieB5zmEFoqdVB1iV2mKV7osH+pox7suHaOWMjLDO3LcHmhzPQCxlHJyHinPocXaqfAVcx5edHTZNUstXNdXV7EixHuWSqK7GfWVC9ymNmET7YXVkWmWwxOSZL8c+SBFxmDj4xDEzuneYE5Nn5wfeCFZXJeFRfihWpHnoFFX2+qF0W7CLG9gI3XsEfF3ZihHDOuO9UL3KXYyAbfNqd4YWEAj32i8cALfA+tsRbyAve+Eb9vUp77ewHQYunAvYCd3FXi6fbuyPcGfy9g3az2ZltFd7oXcKR1DVWzPLxwNpaFvEAk8/3AQuLUpnmh89FrFeqFjvbVqHJsThn+em+qFzYwUbhObFaxMfTQC9w4NZ1UGDX90ssLe99DnAX2AooLtoswY7DzKbzAfXzU6+l4cIBJwz6MpbVzHmnDBqNUOhUZuiAr8fdirELpaTSMSlhXtXu65eHFlo6dqxVgrankvbywFCx/e72iusieWjQUzQnxjKEo4ExdUfK0vsgrJvMir2hsH5EULS/VqjAd8OJScUQ+hOnJcAqDPVZh54GipjCc1PKKIjkj5wzFrNiPLFnB/rZqsqKqJjmbwYgMlTDIJQFFT9JI59C7iV4YCju14Tw0Yikeh/Jmxhl2fhV0XXdKaWuk66PuVhGeZKGo66xQgnsEBL2qJlfhKE/fiG+wRRffLZTqeblaZL1m4AVKmC62dUbGF1xVcoG16+qdfL4DVXuNjwiQhb4pNK1eqWrkKyWdfGTg9G3xvnMl2agWu66XIkWKFClSpEiRIkWKFClSpEgro/8DmyZvWdsdlDIAAAAASUVORK5CYII=;" vertex="1" parent="1">
          <mxGeometry x="790" y="212.87" width="169.52" height="120" as="geometry" />
        </mxCell>
        <mxCell id="B7DCt7BBjTlzGBBhd7W7-6" value="" style="shape=image;verticalLabelPosition=bottom;labelBackgroundColor=default;verticalAlign=top;aspect=fixed;imageAspect=0;image=data:image/png,iVBORw0KGgoAAAANSUhEUgAAAMYAAAD/CAMAAACdMFkKAAAAflBMVEUAAAD////6+vr09PS9vb3c3Nzw8PBtbW3m5uZiYmL8/PwoKChVVVWqqqrR0dGmpqZ8fHzKyspJSUkVFRU+Pj6dnZ0LCwuOjo50dHTi4uIhISHq6urY2Ni0tLQ5OTkyMjKNjY1cXFxRUVHExMQrKysRERFxcXGEhIRnZ2eenp5qbH/dAAAJm0lEQVR4nO2daZeiOhBA02ziAgKKC4iKS2v//z/4oG3bhbWSqkB63v0y58w578kdCKlUUgX7ICLe+MklDbbj2WIxG2+D9JL4m5jq1xjB/3Oku/t0d2YFzrt07+ojgp/E11hPh4uiwYPFcLpG/1FkjThJax1+TNIE+fFC1bCXp2aHG6eljfnLiBobr63DDW+D99toGvYgglkwFg3Q7giWxhdY4lvkC+nncTT8HY9Ezs5HuQAMjdGFVyLngjGPIGiYgYgFY4HZBw2Ha1Q8EzndayxFJXKWHWtoQwwLxq5alxoWkgVjQ6s7jfiAZcHYQSjKEtHQt3gWjG31bjS0AaYFYwOB8cGvMfrEtWDsk38i5NcQmrrLucjXMPAtGDNka2yE5+4yIt4lCKeGJhhHVRFwDnNODYKBcYNzePBp+FQWjPGtP7g0tAmdxoTrseLSCOksGAtlacSUFozxBFc8GmTj+wbPKOfQMEuys5icORa1HBrEN4PrdsA17BZJWjEW8CwcXANl8V0PfGkO1tBIgqlXIvDcAdYgiWzfAUe6YA3kJV85A2oNcyxDYwx950I1HBkWjEHziFANwqDwmQmthibHgjHguwqo4crScEk1SEP0Z4DhOkxDu8rSAOamYRoW9+YYlB0sNQ3TMGVZMAabOWAahKmEd2CpBZiGpMkvBzYBwjSA5xBE8Ag10DaXmhkSakgKRXJg4QhIY0SUuS0jAG12gDS0uTyNOWj+A2ngbvbVA9sKBGnIm8Sh0/i/qKHLHBt0DxXVHlMZsH0n2LyBeCqhiQPowv7F6e+vBCN7eRp7Qo1EnkZCqCEtMQJNjcA06Pc27gD3OIApBWlB1ZYypSBv+Qdb/EE1prI0pqQaa1kawEoVaEZ9JsdiBrwsqIak7OeVWEPK1h988w+qEUtZcsyh50bAW5hSXrnA1y2HhpRsNPjUCHx7X8JTBUvucGnISEfD6zngGhp5emQHP6fHcRCJfP+P45gehwZ1mAsMbnk1Pr5oNXhqAXk0RqTnRsY8dQNcB1iPlBpHniviOxVNeBoJfAZJQMMmi9dnfNW+nEftyTI9sLyOqMYHekXQjU/Oy+HV0Emy0gfeajPuoqANhQZ3PT9/iRbB8OAcGEIa+KGuQKGySBUm8vlokTJloZpY1AUteOGKpqEhFg9chEqtBevF0Z4rwcJ30ep9pHEu2oZAuAkBSv6Nu4gUTePDTkUlUvHmLwgNOnTBAbIUqXfH08gmdIHSlIh/6n4Cp3mNduHcFFyIvWd/wWol5HMdYJjgdODB7E/lgM/FBOLdXu4gttnSDNAdmRg4z9M3qE3PtGPrxdThiCiB30nPclrckokj1uOlCH5DQG0dpjXZ6l0arlFvxDcU7RmzGfE4vZao7K7TI8JcVwKNRs5Ii4/h8uKtBoOVd1mGx1ij6C95g05DKv9r9In/NeoZ6bHpHo0kcaZTJ0mMo2vGJD1kv6HQ0G0/9NJgG72EvYtoG6Re6NsUr1xsjdgIm5p/RoPQwG5TjKlhueG85cbHbB66mAEJnobhAc8vzD3hTMIvOBq6z5lA9HyckYKhEYcClQRBiDFOxDV4b8TzLelaQzNQdp0OoitBMY2jcKrtTsq1HY6i4aMW1wQijxa/hom+xz/g7+/LvRNL0oqHOw/KqWEQHVOYcc6IXBrxikYiZ8U1jfBoEB8p5rkhcA2LvJnQAB40gjVcCZUoW2CzFLjGnl4iB1ZnBtWgHNuvAEc6SEO0fz0EWK97iIakooc7kDcWQGMqrVruxgJQ39ReQ0IjwHfaH11oq6FJ7JTywGu7DGmrIbE2+Zm2dcrtNHS05RGUtF3M20pD7+he5AxbebTR0CUW7ReZtPFooaFL63RWzrWFRwsNKe0x62hxbL1RY9TJm/YVr3FDoVGjg1mvSOM82KQhsc1ZHU2nSxo0JPacq6chiVWvsW794TtqTvUF5LUausQOSE3sal+7dRojaWu9NqzqXld1GtIaJ7SjbvlRoyF5sddMzXKwWsOS0GkcRlSdv6rUGHUegxQZVA6PSo2eDYwblcOjSsPs3SOVE1VlfSo0ZHZpg1DV0a1CQ1pPaCgVteTlGqak5i5wZuWPVblGTx+pnKC9hsTeZnBKKwzKNOJevqXuRGW59jKNHixb6yirrCvRcCWnnKEsSvaiSjQkdsTko6SPZlGjd4FtkWKoW9CwJDaL5WVeCHULGsRNRHAotCJ519ClfHtGlPH7wvxdo7fB1CvvodWbhqXEzchuh1WrocjNKNyOVw27R4mpenZ2jYYSr6kbXzUaPQ9DnllUa/Q6QH8nqdLodo8Pysue4LMGadspfI4VGh1vVUK5lmuse5tHKGe2LtVQZuq7E5Zp0DaWo+CpWd1DQ4Hl0jtGiQZR/y9KPosa/dmtbM9jX/NXoycb4DCcgkaP853VBO8a0hqk47J+01Bu0rgRvmpoHZ5fE2GovWgo+kz9PlVM4fdUjvOi0dnJTlHSZ421cvHUnfH6SUPBeOqO8aTR842ZOrwnDQXjqTunh4bd9bWIYP9q9PJ8SFumvxq9OsUGZXXXsJSMbu8E1o+GqVDOs8jC/NFQeNbIMX40FJ41crwfDQX2XuuY3zQsxbKF78ysbw2JH/Gjwf3WUGpXo4zkW2Pf9WWIss81Roouwx8MR5mGGucS6hjrmYbV9VWIY2Uayr+o8lcVUzcp8sDJNPYdXwMC+0yjh5UBUAaZRu+PFjZz+GAqHMprYm4xFXeZ3jmt2ebc9UWIc96wPzBtZBMH6025qAg+Uz5Mz0mYortlr4QM8fMy3XFhSmcM76yY8oumnCH7A7FIFo0wCT3M6Nky5ZewOWPW63KstkR/RUPxzOeNGfsDAW4W4jKlt2ju/AmJnD8yNvZdXwIGe6ZOAU01O5t9bJSfOaJNvr8h/sG+bknj2xamrvQKMNR/T/BYe0VnwfPeejnAal8UHOq7y71s7nHUXksUGyNp8mg68lJpZn0NFVl+jIdfL+Wk76W96+Ta+wBlcU3eW6CVtYTYfA16m58+Db7KPkJe3i5lZG2cVdCzB2wcrJyNVd7bqaZbmLY+hl5P3l87LzzWfSawscukZibLz0ln+ZPt5HOZmI1Nilu29Y1N37lMdpG0WfIc7SYXxzdjxLa+v2i2azhLL52ThZPRPPWWjuHasI/VcH24YqTpeuwa06U3GE6CudBNyv7Z58FkOPCWU8ONdZ3vE43iHzzSLNvcuL7vH5Pp8rL6vKaHzOwURdFsdl4svmeh7I/zbJb91Sm75kN6/VxdltPkmP1H7sa0LfFPfP4H9v6WiVNF/boAAAAASUVORK5CYII=;" vertex="1" parent="1">
          <mxGeometry x="1072" y="231.25" width="64.64" height="83.25" as="geometry" />
        </mxCell>
        <mxCell id="B7DCt7BBjTlzGBBhd7W7-14" value="API Service" style="text;strokeColor=none;align=center;fillColor=none;html=1;verticalAlign=middle;whiteSpace=wrap;rounded=0;fontStyle=1;fontSize=17;" vertex="1" parent="1">
          <mxGeometry x="352.56" y="100" width="130" height="30" as="geometry" />
        </mxCell>
        <mxCell id="B7DCt7BBjTlzGBBhd7W7-15" value="Kafka Service" style="text;strokeColor=none;align=center;fillColor=none;html=1;verticalAlign=middle;whiteSpace=wrap;rounded=0;fontStyle=1;fontSize=17;" vertex="1" parent="1">
          <mxGeometry x="352.56" y="397.12" width="130" height="30" as="geometry" />
        </mxCell>
        <mxCell id="B7DCt7BBjTlzGBBhd7W7-33" style="edgeStyle=orthogonalEdgeStyle;shape=flexArrow;rounded=0;orthogonalLoop=1;jettySize=auto;html=1;exitX=0.75;exitY=0;exitDx=0;exitDy=0;" edge="1" parent="1" source="B7DCt7BBjTlzGBBhd7W7-16">
          <mxGeometry relative="1" as="geometry">
            <mxPoint x="682.3333333333333" y="337.12" as="targetPoint" />
          </mxGeometry>
        </mxCell>
        <mxCell id="B7DCt7BBjTlzGBBhd7W7-16" value="" style="shape=image;verticalLabelPosition=bottom;labelBackgroundColor=default;verticalAlign=top;aspect=fixed;imageAspect=0;image=data:image/jpeg,/9j/4AAQSkZJRgABAQAAAQABAAD/2wCEAAoHCBURERISERESEBEREREREREPDxESEhESGBgcGRgUGBwcIS4mHB4rHxgYJjgmKy8xNTU1GiQ7QDszPy40NTEBDAwMEA8QHRISHz0mJCw/NDQ/NT4xNzE0PzE0PTE0NDE0OzE0NDQ0NDQ0NDQ0MTQ0NDY0NDQ0MTU0NDQ/NDQ0NP/AABEIAMQBAgMBIgACEQEDEQH/xAAbAAEAAgMBAQAAAAAAAAAAAAAAAQYCBAUHA//EAEMQAAICAAMEBgcEBwYHAAAAAAECAAMEBREGEiExMkFRcXKxBxMiMzRhgRRzkaEjUmKCkrLBNUKis8LRFkNEVGN0k//EABoBAQADAQEBAAAAAAAAAAAAAAADBAUCAQb/xAAlEQEAAgEEAQQDAQEAAAAAAAAAAQIDBBEhMkESMXGBEzNRoQX/2gAMAwEAAhEDEQA/APYyJEzmBgIiICIiAiIgJkBIWZQIMxMykGBEREBESdIERMVsDDVSGHapBmUBAiSIEiCIkwMIktIgIiICIiAiIECQJMmQYEREQBMiIgCImQmJEBERASQIAkmBjMgZjEDKQYBkEwESsZttnh6CUrJxFgOmiH2FPzbl9Br9J9cPtSp6dbDgOKENx7jpIbZ8dZ2mUtcGSY3iH22h2krwIUMrPY6lkReAI5asx5DXvPynnucbU4jFaqX9VWf+XUSo0+bczN/b7HJfdS1bbwFZB1DLod7XrEqkrZc02naJ4XdPgrFYtaOVsyTFNVWhrcod0cuR7xyMteA2lB0W9d0/rrxX6jqlOy73VfhmzKFdRfHadp4/i9fTY8teY5/r0im9bF1RgwPWDqJ9BPOcPiWqbeR2Q/snge8cjLDgdpgeF66ftICR9V5/hrNHDraX4txLNzaG9Oa8x/qzCCZ8qb1dd5WVlPWp1EzlyJ3UZjb3JJEiTPRESSJEBEQogAJMkyIAGTMZIMBERAiIiBkJMgSRAxZYVZnIgDIMkyDAxiIgVjPtsKsKzVorXXLwZR7Kqewsf6ds+WI2m3q7FarTeRwCra81I6xKRtV8difvD5Cda/oP4W8pl59TkrbaJa2n0mO1N7RyqadX0luXkPpKgnMd4lvXkPpKmbwu4fLiZ9008J85y51M+6aeE+c5ckxdYR37Ss2Xe6r8M2ZrZd7qvwzZlW3aVmvtBE4dW0abxV0ZNGK7ykOOHX2ju4zqYbG12dB1b5a6H8J7OO1feHMZKW9pb2HxLVtvIzKfkeB7xyPIc5YMBtKDot66HlvqOHeR1fSVmJJi1F8ftP0iy6bHl945/r0iqxXUMpDKw1BB4GfSczIPh6/CfOdObtLeqsWYF49Npr/GUgiSInbliqzKTIgQZEkyIEREQEREBEmRAyESJMCYkRAQYkQIiJMDxvav47E/eHyE61/Qfwt5Tk7V/H4n7w+QnWv6D+FvKYep7/bf03T6hUk5jvEt68h3CVBOY7xLevIdwnGbwkw+XEz7pp4T5zlzqZ9008J85y5Ji6Qjv2lZsu91X4Zsma2Xe6r8M2RK09pWY6u5mb5VYobEfZnfRQzVjeu1A00Jr9vh85z8R6OcPaofC4h6wwBXe0tTv6j9NZRn6R8R856HkOa+obcbjWxGv7J7e7tmpGekzFbRxLJtpr1ibUnmFMzLAYrLrRU96OpG8vFnUproNQw1U/IH6zp5biWsr3nABDFTu8joAdfzmx6Rm1xVenEepHH6maGR+6P3jeSytqa1rM7QtaW1rViZel5D8NX4T5zpTm5D8NX4T5zpTUw/rr8MfN3t8ymTIiSo0yIiAMiIgRJAiIExIiAkSZEBERAREQEREBJkSYHje1fx+J+8PkJ1r+g/hbynJ2r+OxP3h8hOtf0H8LeUw9T3+2/pv1/UKknMd4lvXkO4SoJzHeJb15DuE4zeEmHy4mfdNPCfOcudTPumnhPnOXJMXSEd+0rNl3uq/DNkTWy73VfhmyJWt2lZr1VJ+kfEfOW0SpP0j4j5y2iSZvCLF5c3PKWcLZqW3F3NOsJzGnyEnI/dHxt5LNnG4pa0JPEngq9p/wBprZIda2PbYx4dyxNrWpy9ita24el5B8NX4T5zoznZB8NX4T5zozcw9K/EPn83e3zJERJEZERAREQJiIgIiIAyJJkQEREBERAREQEymMyEDxrav4/E/enyE61/Qfwt5Tk7VfH4n70/0nWv6D+FvKYep7/bf036/qFSTmO8S3ryHcJUE5jvEt68h3CcZvCTD5cTPumnhPnOXOpn3TTwnznLkmLpCO/aVmy73VfhmyJrZd7qvwzZlae0rMdVSfpHxHzlywmHa1lRRqzdvIDrJnzu2CxGu9XbSyt7Xtl0bjx00CsPzl2yjL1wyasV9Yw9piezqHyEvxppvMeriGdbV1rWfRzLznbPBijEIgJOlKkk/wB5iTqdOqY5H7s+NvJZv7fVtZiRYisyeqVd9QSuoJJHCaGR+6PjbyWR6mIjeI9kultNoibe70vIPhq/CfOdGc7IPhq/CfOdGauHpX4hj5v2W+ZIiJIjIiICIiBIk6SBMhAwiZxAxMiSZEBETICAAgiTEDCJJEiAmQmMygeM7U/H4j70/wBJ17+g/hbym3tRsje91mIp3bg7bxrHs2Kewa8GH1HdJxGVXhHJqbQI5J4ctD85j6nFf18Q2tNmp+P3hRk5jvEt68h3CVBOY7xLevIfSQZvCzh8uJn3TTwnznLnUz7pp4T5zlyTF0hHftKzZd7qvwzZM1su91X4ZsytbtKzXqsr5mQo3rN0aLooIBHDTq4maNuZr1BnPHieE5ESWdReVeulpDcszFzy0UfIan85p9ZPWTqfmeX9Im3gsusv6C+z+s3BRx059fXy7JxHryTtHKWfx443nhb8g+Gr8J850Zq5bhjVUiEglRoSOWs2hN/HExSIl87kmJtMx/SSBAEynbhBExmcgiBjERAkTITESdYExMIgTIiSBAkCTEQEREBMSJlEDCTBEiAmFtYdWQ8nVlOnPQjQzOIHmmbbC21Hfw7evQcdw6Lao+XU3Xy0PLgZv1ZPew4VMOr2iF/IkS+iTKt9JS87yt01uSkbPItrcA1FlauVJZCRusTw1046gTgT0nbnILsSyW0AP6tCrJrox466rrwM85uqZGKOrIynRkZSrA/MGVr4vRO0ey3izfkrvM8rHl3uq/DNma2Xe6r8M6+Byq2/ii7q/rtwH07fpKH47XvMVjdfnJXHXe07NGbmCy227oL7P6zeyv49f0lmwGz9VejP+lbtbojuH+87AGnAcB2CXsWg83n6Z+b/AKPikfbi4HZ2tNDZ+lPYw0X8Ov6ztqNBoBoByAiJoUx0pG1Y2Zt8l7zvadySBAEykjgiIgIiIEETGZyDAiREQERECQJMRAREQEREBERASCJMQMYkmRAkSZAkwJmhmeU04ld26tX4aBtNGXuYcRN6J5MRPu9iZjmHFy3ZyigAAGzTXd9Zo2g7NORnaiJzWla8RGz21rWne07oMiSZE7ckkCBJgIiICIiAiIgIiIEESJlIMCIiIExEQMXcKCzEBVBLE8gBxJni2N20xj3WWV3ulXrCUQAbqpqdxTw6wPOehekPM/s+BdQdHxB9SnceLn+EH8ZWMr2a9Zkdr7v6WxvtScOOleoUDvXf/igei5VjVxFFVy9G1FfuJHEd4Oo+k89TP8Th84+z3Xs9BxBTdbTTcs6HV1EqJ0PRVme/RZhmPGly6D/xudSP4tT+9OR6VMIa8VRiU4GxNN7sesgg/gy/wmBb9vs2fCYMtU5S2yyutGGmq8d5iP3VI+s4vo32huxNl9WIta1gq2IX01AB0YDTvE5u2mO+335bQnK1KrSOw26cPoAYsUZfn6AezVeUA6hu2jc/zF/KBuekPaG+nE00YW1q23N5gmmrOzaKDr8h/inU2s2jsy7DUVgi3FOir6ywaj2QA9hA01JPVy4/SVegfb8/J6SV3Fv3KeA/xCWT0ibO2Yta7aF37KQytXrozo2h1XtII5QOTgcszfFVrecYahYA6qX3TuniDuqNF7p0tnbczpxiUY0myl1sIs0Vl3lGoAYDUH5GVXA7X43AKtVle8iAKq4itlYKOShuGol12W22rxz+pdDTcRqo3gyWacwp5g/I/jAt0qfpEzG3DYVLKLGrc3KpZNNSuh4S1ylelT4Kv79P5WgdXYfG2X4Guy5zY7M4LtzOjECWHWVf0c/2bV4rP5jLMw1BHaCIHMv2jwiHR8XQD2CxW8ptYHMabwTTdXbpz3HViO8cxKPdlWS4QFLrFdx0tbHdwe5OUqmHxFFOZ02ZfY7UmysKWDqdHOjod4Akd8D2bFYuuoA22JUGOgNjogJ7BvHjPliM0orRbHvqStuKsXXdcfs/rfSU30t/D4b79/5DPlk+xFWKwdNt11z2vSvqzvAJSunsoq/qiBfcLi0uQPVYliH+8jBl+fETWpzvDPZ6pMTS1mugRbFJJ7B2n5CeTbD4FsVfbhGusqoetrLkqIHrNx1UIT1A7/Ht00n0272dry96Th2fdsVzozalHQroQfr+UC/ekO1ky61kZkYPToyMVYa2LrxE1dgswVMtFmIuCgXWA2XWfMaDVj+Uw22uL5LvtxZ1wjMe0l0JM4+xWytGMwa2YhrXAexUrFhVE5akAdZgeg4HMqcQCaLq7d3pbjBiveOYmxfctal3ZURRqzMwVQPmTPHWoOU5xWlbMUFlQ1PNqbCAVbt01P1UTo+kLFvicfVgkbREZF06jZZ/eYdegPn2wLlm+d4e3CYsUYlHsXC3kCu0b4IRjqvXw7ROB6KcQ9i4rfd30anTfdn01DctTPrm+w2EowV7qjtbTh7LBYztqXRCwJHLTUcpr+iL3eM8dPk8C5YrPsNUxWzE0owOhU2KWB7CByM+mBzfD4g6U312Nz3UdS2nbpz0lTzLKcpw9ttmLsVrbHex1exiwLktoFXlzlGz6zCV4muzLLH0Uhzqti7likabpYA8R5QPc4nzwzlkRjzZFY95AM+kBERAiJJEiB5Rt9iWxmZVYSs6isrSvYLHILse4bv8JnTX0e4gDdGYsFA0ChXAA7NN7lLpXkmGW3164epbt4t6wIN/ePM69vGdCB41lBbKc2Wt21UOtNjaEK1dgBV+4aqfoRL16SMB63AO4GrUOto+Q6LfkTO1jsjw17+suw9Vr6Bd90BbQchr9TN22hXQ1uoZGXcZWGoK8tDA8j9G+FN+PSx9WXDVM4146E+wi/4mP7s73pXwZC4bFJwatzWzDmNfaQ/Qg/jLrl+U0Ybe+z0V07+gf1aBd7TXTXu1P4z7Y3BV3oa7q1tQkEo67y6jkdIHnvonwRZsViW49GlGPWx9t/8AR+MsG0u1gy/EVV2Vl6ra2ZmU+2jBtOAPAiWHA4GrDpuU1pUmpbcRQo3jzMnF4Cu9d26tLF7HQN5wK5ZtvlzoS9m9qDrW2HsZiOzo6fnKPsfhPtOai7D1lMPXa9vL2a0Ou6vZqdeA/wBp6KdjcBrr9kr7va3fw10nYwuESpAlSJWg5KihR+UD6ylelT4JPv1/laXWa2Py+rEKEvrS1Ad4K67wB7YFA2P2xw2FwddNpsDqzk7tZYcW1HHWdPMNsqcVhsTXg2t+0fZrXT9GVIVR7RB15gEkTu/8K4H/ALOj/wCYn3wWQ4ah/WU4aqt9Cu+iAHQ8xA812AuwKC5sYahbvqa2xADKE04ldeG9rr8+U18+xlV+bUvhx+i3sMqncNato/SUED2fn8p6Q2yeCNhsOFrLE6ngd3Xt3eU2rskwzutj4aprEChHKDeUL0QOzSBU/S38Phvv3/kMs2yH9n4T7hJuZhllOJVVvqruVTvKLFDBTppqPpPvhqErRa61CIgCoijRVA6hA8q9GP8AaV3/AKt/+bXOh6XP+k7rv9EvWByXDYdzZTh66rCpUuigMVJBI17NQPwmeY5TRid319Nd25ru+sUNu689PwECqbW/2Engwf8AMk0tg9pcLhsF6u+9a3WyxyjLYTunTTTQce6Xu/L6rKvU2VI9ICgVsuqaLpujT5aD8JoXbMYN6xWcLUEUkqFTdKk89COMDzh3ObZwj1K3qhZUSxGm7TXoSx7NdDp4hPvt1W2EzSvFbpKMa7VPUShAde/gPxnpeWZVThVK4epKgeLbo4sfmeZmeYZdViU9XfWlqa66ONdD2jsMCp55tnhLsHelTvZbdh7UFa1PvIWQgliRoAOZOvVOb6LN4U441jVx6sqO1t19Pz0lzwWzuFoR0rw6Ktisj6jeLIw0Kknjpp1TZy/K6MMGGHpSkPoXFahd4jlr+JgeR7EW4X7Ta+YlSxTVGxILL6ze9str/e7/AJz7+kHMMPfbR9l3SlaOpdK9ytmLLwU6De069O2ekYzZjB3WG2zDVs5OrHQjePawHOffE5DhrAivhqnWtStYZBoiniQOzkIG5gvdV/dp/KJ9xIRAAABoAAAB1AchMoEREQMpgZkTMYCIIiAiIgIiAIEqJlMJkDASDJkGBEREBJ0gCZwPnElhIgJIkSRAmTIgmBDSIgiAiIgIiICBAiBnIMAwYEREQIiIgTMTJiBjERAlZkYiBERECZBiICBEQM4iICYGIgIiIEyIiAkxEDFpERAQIiBnIMRASREQERED/9k=;" vertex="1" parent="1">
          <mxGeometry x="554.54" y="377.12" width="171.12" height="130" as="geometry" />
        </mxCell>
        <mxCell id="B7DCt7BBjTlzGBBhd7W7-20" value="S3 Bucket for Image Storage" style="text;strokeColor=none;align=center;fillColor=none;html=1;verticalAlign=middle;whiteSpace=wrap;rounded=0;fontStyle=1;fontSize=17;" vertex="1" parent="1">
          <mxGeometry x="575.1" y="167.13" width="130" height="30" as="geometry" />
        </mxCell>
        <mxCell id="B7DCt7BBjTlzGBBhd7W7-21" value="Image Processing Algorithm" style="text;strokeColor=none;align=center;fillColor=none;html=1;verticalAlign=middle;whiteSpace=wrap;rounded=0;fontStyle=1;fontSize=17;" vertex="1" parent="1">
          <mxGeometry x="575.11" y="527.12" width="130" height="30" as="geometry" />
        </mxCell>
        <mxCell id="B7DCt7BBjTlzGBBhd7W7-22" value="BI Tool For S3 Data Analysis" style="text;strokeColor=none;align=center;fillColor=none;html=1;verticalAlign=middle;whiteSpace=wrap;rounded=0;fontStyle=1;fontSize=17;" vertex="1" parent="1">
          <mxGeometry x="809.76" y="357.12" width="130" height="30" as="geometry" />
        </mxCell>
        <mxCell id="B7DCt7BBjTlzGBBhd7W7-23" value="Downstream InternalUsers" style="text;strokeColor=none;align=center;fillColor=none;html=1;verticalAlign=middle;whiteSpace=wrap;rounded=0;fontStyle=1;fontSize=17;" vertex="1" parent="1">
          <mxGeometry x="1039.32" y="357.12" width="130" height="30" as="geometry" />
        </mxCell>
        <mxCell id="B7DCt7BBjTlzGBBhd7W7-24" value="API Management" style="text;strokeColor=none;align=center;fillColor=none;html=1;verticalAlign=middle;whiteSpace=wrap;rounded=0;fontStyle=1;fontSize=17;" vertex="1" parent="1">
          <mxGeometry x="148.93" y="100" width="130" height="30" as="geometry" />
        </mxCell>
        <mxCell id="B7DCt7BBjTlzGBBhd7W7-26" value="&lt;font style=&quot;font-size: 20px;&quot;&gt;Proposed System Architecture for Section 3&lt;/font&gt;" style="rounded=0;whiteSpace=wrap;html=1;" vertex="1" parent="1">
          <mxGeometry x="32.68000000000001" y="30" width="400" height="60" as="geometry" />
        </mxCell>
        <mxCell id="B7DCt7BBjTlzGBBhd7W7-30" style="edgeStyle=orthogonalEdgeStyle;shape=flexArrow;rounded=0;orthogonalLoop=1;jettySize=auto;html=1;exitX=1;exitY=0.75;exitDx=0;exitDy=0;entryX=0.017;entryY=0.594;entryDx=0;entryDy=0;entryPerimeter=0;" edge="1" parent="1" source="B7DCt7BBjTlzGBBhd7W7-27" target="B7DCt7BBjTlzGBBhd7W7-2">
          <mxGeometry relative="1" as="geometry" />
        </mxCell>
        <mxCell id="B7DCt7BBjTlzGBBhd7W7-36" style="edgeStyle=orthogonalEdgeStyle;shape=flexArrow;rounded=0;orthogonalLoop=1;jettySize=auto;html=1;exitX=0.5;exitY=0;exitDx=0;exitDy=0;" edge="1" parent="1" source="B7DCt7BBjTlzGBBhd7W7-27" target="B7DCt7BBjTlzGBBhd7W7-3">
          <mxGeometry relative="1" as="geometry" />
        </mxCell>
        <mxCell id="B7DCt7BBjTlzGBBhd7W7-27" value="" style="shape=image;verticalLabelPosition=bottom;labelBackgroundColor=default;verticalAlign=top;aspect=fixed;imageAspect=0;image=data:image/png,iVBORw0KGgoAAAANSUhEUgAAAMYAAAD/CAMAAACdMFkKAAAAflBMVEUAAAD////6+vr09PS9vb3c3Nzw8PBtbW3m5uZiYmL8/PwoKChVVVWqqqrR0dGmpqZ8fHzKyspJSUkVFRU+Pj6dnZ0LCwuOjo50dHTi4uIhISHq6urY2Ni0tLQ5OTkyMjKNjY1cXFxRUVHExMQrKysRERFxcXGEhIRnZ2eenp5qbH/dAAAJm0lEQVR4nO2daZeiOhBA02ziAgKKC4iKS2v//z/4oG3bhbWSqkB63v0y58w578kdCKlUUgX7ICLe+MklDbbj2WIxG2+D9JL4m5jq1xjB/3Oku/t0d2YFzrt07+ojgp/E11hPh4uiwYPFcLpG/1FkjThJax1+TNIE+fFC1bCXp2aHG6eljfnLiBobr63DDW+D99toGvYgglkwFg3Q7giWxhdY4lvkC+nncTT8HY9Ezs5HuQAMjdGFVyLngjGPIGiYgYgFY4HZBw2Ha1Q8EzndayxFJXKWHWtoQwwLxq5alxoWkgVjQ6s7jfiAZcHYQSjKEtHQt3gWjG31bjS0AaYFYwOB8cGvMfrEtWDsk38i5NcQmrrLucjXMPAtGDNka2yE5+4yIt4lCKeGJhhHVRFwDnNODYKBcYNzePBp+FQWjPGtP7g0tAmdxoTrseLSCOksGAtlacSUFozxBFc8GmTj+wbPKOfQMEuys5icORa1HBrEN4PrdsA17BZJWjEW8CwcXANl8V0PfGkO1tBIgqlXIvDcAdYgiWzfAUe6YA3kJV85A2oNcyxDYwx950I1HBkWjEHziFANwqDwmQmthibHgjHguwqo4crScEk1SEP0Z4DhOkxDu8rSAOamYRoW9+YYlB0sNQ3TMGVZMAabOWAahKmEd2CpBZiGpMkvBzYBwjSA5xBE8Ag10DaXmhkSakgKRXJg4QhIY0SUuS0jAG12gDS0uTyNOWj+A2ngbvbVA9sKBGnIm8Sh0/i/qKHLHBt0DxXVHlMZsH0n2LyBeCqhiQPowv7F6e+vBCN7eRp7Qo1EnkZCqCEtMQJNjcA06Pc27gD3OIApBWlB1ZYypSBv+Qdb/EE1prI0pqQaa1kawEoVaEZ9JsdiBrwsqIak7OeVWEPK1h988w+qEUtZcsyh50bAW5hSXrnA1y2HhpRsNPjUCHx7X8JTBUvucGnISEfD6zngGhp5emQHP6fHcRCJfP+P45gehwZ1mAsMbnk1Pr5oNXhqAXk0RqTnRsY8dQNcB1iPlBpHniviOxVNeBoJfAZJQMMmi9dnfNW+nEftyTI9sLyOqMYHekXQjU/Oy+HV0Emy0gfeajPuoqANhQZ3PT9/iRbB8OAcGEIa+KGuQKGySBUm8vlokTJloZpY1AUteOGKpqEhFg9chEqtBevF0Z4rwcJ30ep9pHEu2oZAuAkBSv6Nu4gUTePDTkUlUvHmLwgNOnTBAbIUqXfH08gmdIHSlIh/6n4Cp3mNduHcFFyIvWd/wWol5HMdYJjgdODB7E/lgM/FBOLdXu4gttnSDNAdmRg4z9M3qE3PtGPrxdThiCiB30nPclrckokj1uOlCH5DQG0dpjXZ6l0arlFvxDcU7RmzGfE4vZao7K7TI8JcVwKNRs5Ii4/h8uKtBoOVd1mGx1ij6C95g05DKv9r9In/NeoZ6bHpHo0kcaZTJ0mMo2vGJD1kv6HQ0G0/9NJgG72EvYtoG6Re6NsUr1xsjdgIm5p/RoPQwG5TjKlhueG85cbHbB66mAEJnobhAc8vzD3hTMIvOBq6z5lA9HyckYKhEYcClQRBiDFOxDV4b8TzLelaQzNQdp0OoitBMY2jcKrtTsq1HY6i4aMW1wQijxa/hom+xz/g7+/LvRNL0oqHOw/KqWEQHVOYcc6IXBrxikYiZ8U1jfBoEB8p5rkhcA2LvJnQAB40gjVcCZUoW2CzFLjGnl4iB1ZnBtWgHNuvAEc6SEO0fz0EWK97iIakooc7kDcWQGMqrVruxgJQ39ReQ0IjwHfaH11oq6FJ7JTywGu7DGmrIbE2+Zm2dcrtNHS05RGUtF3M20pD7+he5AxbebTR0CUW7ReZtPFooaFL63RWzrWFRwsNKe0x62hxbL1RY9TJm/YVr3FDoVGjg1mvSOM82KQhsc1ZHU2nSxo0JPacq6chiVWvsW794TtqTvUF5LUausQOSE3sal+7dRojaWu9NqzqXld1GtIaJ7SjbvlRoyF5sddMzXKwWsOS0GkcRlSdv6rUGHUegxQZVA6PSo2eDYwblcOjSsPs3SOVE1VlfSo0ZHZpg1DV0a1CQ1pPaCgVteTlGqak5i5wZuWPVblGTx+pnKC9hsTeZnBKKwzKNOJevqXuRGW59jKNHixb6yirrCvRcCWnnKEsSvaiSjQkdsTko6SPZlGjd4FtkWKoW9CwJDaL5WVeCHULGsRNRHAotCJ519ClfHtGlPH7wvxdo7fB1CvvodWbhqXEzchuh1WrocjNKNyOVw27R4mpenZ2jYYSr6kbXzUaPQ9DnllUa/Q6QH8nqdLodo8Pysue4LMGadspfI4VGh1vVUK5lmuse5tHKGe2LtVQZuq7E5Zp0DaWo+CpWd1DQ4Hl0jtGiQZR/y9KPosa/dmtbM9jX/NXoycb4DCcgkaP853VBO8a0hqk47J+01Bu0rgRvmpoHZ5fE2GovWgo+kz9PlVM4fdUjvOi0dnJTlHSZ421cvHUnfH6SUPBeOqO8aTR842ZOrwnDQXjqTunh4bd9bWIYP9q9PJ8SFumvxq9OsUGZXXXsJSMbu8E1o+GqVDOs8jC/NFQeNbIMX40FJ41crwfDQX2XuuY3zQsxbKF78ysbw2JH/Gjwf3WUGpXo4zkW2Pf9WWIss81Roouwx8MR5mGGucS6hjrmYbV9VWIY2Uayr+o8lcVUzcp8sDJNPYdXwMC+0yjh5UBUAaZRu+PFjZz+GAqHMprYm4xFXeZ3jmt2ebc9UWIc96wPzBtZBMH6025qAg+Uz5Mz0mYortlr4QM8fMy3XFhSmcM76yY8oumnCH7A7FIFo0wCT3M6Nky5ZewOWPW63KstkR/RUPxzOeNGfsDAW4W4jKlt2ju/AmJnD8yNvZdXwIGe6ZOAU01O5t9bJSfOaJNvr8h/sG+bknj2xamrvQKMNR/T/BYe0VnwfPeejnAal8UHOq7y71s7nHUXksUGyNp8mg68lJpZn0NFVl+jIdfL+Wk76W96+Ta+wBlcU3eW6CVtYTYfA16m58+Db7KPkJe3i5lZG2cVdCzB2wcrJyNVd7bqaZbmLY+hl5P3l87LzzWfSawscukZibLz0ln+ZPt5HOZmI1Nilu29Y1N37lMdpG0WfIc7SYXxzdjxLa+v2i2azhLL52ThZPRPPWWjuHasI/VcH24YqTpeuwa06U3GE6CudBNyv7Z58FkOPCWU8ONdZ3vE43iHzzSLNvcuL7vH5Pp8rL6vKaHzOwURdFsdl4svmeh7I/zbJb91Sm75kN6/VxdltPkmP1H7sa0LfFPfP4H9v6WiVNF/boAAAAASUVORK5CYII=;" vertex="1" parent="1">
          <mxGeometry x="32.68" y="223.87" width="64.64" height="83.25" as="geometry" />
        </mxCell>
        <mxCell id="B7DCt7BBjTlzGBBhd7W7-28" value="Downstream InternalUsers" style="text;strokeColor=none;align=center;fillColor=none;html=1;verticalAlign=middle;whiteSpace=wrap;rounded=0;fontStyle=1;fontSize=17;" vertex="1" parent="1">
          <mxGeometry y="327.12" width="130" height="30" as="geometry" />
        </mxCell>
        <mxCell id="B7DCt7BBjTlzGBBhd7W7-37" value="&lt;font style=&quot;font-size: 20px;&quot;&gt;Assumptions:&lt;br&gt;&lt;ol&gt;&lt;li&gt;&lt;font style=&quot;font-size: 20px;&quot;&gt;Company does not have Cloud Engineers to focus on maintaining Cloud Services dedicatedly.&lt;/font&gt;&lt;/li&gt;&lt;li&gt;&lt;font style=&quot;font-size: 20px;&quot;&gt;Company websites consist of only .js files with no other dependencies&lt;/font&gt;&lt;/li&gt;&lt;li&gt;&lt;font style=&quot;font-size: 20px;&quot;&gt;Company&#39;s websites need to be live 24/7 with minimal downtime.&lt;/font&gt;&lt;/li&gt;&lt;li&gt;&lt;font style=&quot;font-size: 20px;&quot;&gt;Image Algorithm does not take more than 15 minutes to run&lt;/font&gt;&lt;/li&gt;&lt;li&gt;Downstream Analysts are mainly interested in statistics on S3 Data.&amp;nbsp;&lt;/li&gt;&lt;/ol&gt;&lt;/font&gt;" style="rounded=1;whiteSpace=wrap;html=1;align=left;labelPosition=center;verticalLabelPosition=middle;verticalAlign=middle;spacingLeft=5;spacingRight=5;spacing=1;" vertex="1" parent="1">
          <mxGeometry x="750" y="430" width="410" height="390" as="geometry" />
        </mxCell>
        <mxCell id="B7DCt7BBjTlzGBBhd7W7-39" value="&lt;span style=&quot;font-size: 17px;&quot;&gt;Purpose of Services:&amp;nbsp;&lt;br&gt;&lt;ol&gt;&lt;li&gt;&lt;span style=&quot;&quot;&gt;API Gateway: Responsible for management of security and routing of incoming API calls from clients&amp;nbsp;&lt;/span&gt;&lt;/li&gt;&lt;li&gt;&lt;span style=&quot;&quot;&gt;Amazon Elastic Beanstalk: Allow for automatic scaling and load balancing while allowing developers to maintain control over their own applications.&amp;nbsp;&lt;/span&gt;&lt;/li&gt;&lt;li&gt;&lt;span style=&quot;&quot;&gt;Amazon S3: Serve as Datalake for Image Files, can be configured to enable file storage to comply with internal guidelines&amp;nbsp;&lt;/span&gt;&lt;/li&gt;&lt;li&gt;&lt;span style=&quot;&quot;&gt;AWS Lambda: Enable the triggering of the Image Processing Code when an image is loaded into AWS S3.&amp;nbsp;&lt;/span&gt;&lt;/li&gt;&lt;li&gt;&lt;span style=&quot;&quot;&gt;Amazon Athena: Allow one to query metadata and statistics of file storage in S3&lt;/span&gt;&lt;/li&gt;&lt;/ol&gt;&lt;/span&gt;" style="rounded=1;whiteSpace=wrap;html=1;align=left;labelPosition=center;verticalLabelPosition=middle;verticalAlign=middle;spacingLeft=5;spacingRight=5;spacing=1;" vertex="1" parent="1">
          <mxGeometry x="8.93" y="460" width="551.07" height="330" as="geometry" />
        </mxCell>
        <mxCell id="B7DCt7BBjTlzGBBhd7W7-40" value="&lt;span style=&quot;font-size: 17px;&quot;&gt;API Gateway&lt;br&gt;&lt;/span&gt;" style="rounded=1;whiteSpace=wrap;html=1;align=left;labelPosition=center;verticalLabelPosition=middle;verticalAlign=middle;spacingLeft=5;spacingRight=5;spacing=1;" vertex="1" parent="1">
          <mxGeometry x="12.56" y="840" width="470" height="370" as="geometry" />
        </mxCell>
        <mxCell id="B7DCt7BBjTlzGBBhd7W7-41" value="&lt;span style=&quot;font-size: 17px;&quot;&gt;Purpose of Services:&amp;nbsp;&lt;br&gt;&lt;ol&gt;&lt;li&gt;&lt;span style=&quot;&quot;&gt;API Gateway: Responsible for management of security and routing of incoming API calls from clients&amp;nbsp;&lt;/span&gt;&lt;/li&gt;&lt;li&gt;&lt;span style=&quot;&quot;&gt;Amazon Elastic Beanstalk: Allow for automatic scaling and load balancing while allowing developers to maintain control over their own applications.&amp;nbsp;&lt;/span&gt;&lt;/li&gt;&lt;li&gt;&lt;span style=&quot;&quot;&gt;Amazon S3: Serve as Datalake for Image Files, can be configured to enable file storage to comply with internal guidelines&amp;nbsp;&lt;/span&gt;&lt;/li&gt;&lt;li&gt;&lt;span style=&quot;&quot;&gt;AWS Lambda: Enable the triggering of the Image Processing Code when an image is loaded into AWS S3.&amp;nbsp;&lt;/span&gt;&lt;/li&gt;&lt;li&gt;&lt;span style=&quot;&quot;&gt;Amazon Athena: Allow one to query metadata and statistics of file storage in S3&lt;/span&gt;&lt;/li&gt;&lt;/ol&gt;&lt;/span&gt;" style="rounded=1;whiteSpace=wrap;html=1;align=left;labelPosition=center;verticalLabelPosition=middle;verticalAlign=middle;spacingLeft=5;spacingRight=5;spacing=1;" vertex="1" parent="1">
          <mxGeometry x="8.93" y="1250" width="470" height="370" as="geometry" />
        </mxCell>
        <mxCell id="B7DCt7BBjTlzGBBhd7W7-42" value="&lt;span style=&quot;font-size: 17px;&quot;&gt;Purpose of Services:&amp;nbsp;&lt;br&gt;&lt;ol&gt;&lt;li&gt;&lt;span style=&quot;&quot;&gt;API Gateway: Responsible for management of security and routing of incoming API calls from clients&amp;nbsp;&lt;/span&gt;&lt;/li&gt;&lt;li&gt;&lt;span style=&quot;&quot;&gt;Amazon Elastic Beanstalk: Allow for automatic scaling and load balancing while allowing developers to maintain control over their own applications.&amp;nbsp;&lt;/span&gt;&lt;/li&gt;&lt;li&gt;&lt;span style=&quot;&quot;&gt;Amazon S3: Serve as Datalake for Image Files, can be configured to enable file storage to comply with internal guidelines&amp;nbsp;&lt;/span&gt;&lt;/li&gt;&lt;li&gt;&lt;span style=&quot;&quot;&gt;AWS Lambda: Enable the triggering of the Image Processing Code when an image is loaded into AWS S3.&amp;nbsp;&lt;/span&gt;&lt;/li&gt;&lt;li&gt;&lt;span style=&quot;&quot;&gt;Amazon Athena: Allow one to query metadata and statistics of file storage in S3&lt;/span&gt;&lt;/li&gt;&lt;/ol&gt;&lt;/span&gt;" style="rounded=1;whiteSpace=wrap;html=1;align=left;labelPosition=center;verticalLabelPosition=middle;verticalAlign=middle;spacingLeft=5;spacingRight=5;spacing=1;" vertex="1" parent="1">
          <mxGeometry x="680" y="840" width="470" height="370" as="geometry" />
        </mxCell>
        <mxCell id="B7DCt7BBjTlzGBBhd7W7-43" value="&lt;span style=&quot;font-size: 17px;&quot;&gt;Purpose of Services:&amp;nbsp;&lt;br&gt;&lt;ol&gt;&lt;li&gt;&lt;span style=&quot;&quot;&gt;API Gateway: Responsible for management of security and routing of incoming API calls from clients&amp;nbsp;&lt;/span&gt;&lt;/li&gt;&lt;li&gt;&lt;span style=&quot;&quot;&gt;Amazon Elastic Beanstalk: Allow for automatic scaling and load balancing while allowing developers to maintain control over their own applications.&amp;nbsp;&lt;/span&gt;&lt;/li&gt;&lt;li&gt;&lt;span style=&quot;&quot;&gt;Amazon S3: Serve as Datalake for Image Files, can be configured to enable file storage to comply with internal guidelines&amp;nbsp;&lt;/span&gt;&lt;/li&gt;&lt;li&gt;&lt;span style=&quot;&quot;&gt;AWS Lambda: Enable the triggering of the Image Processing Code when an image is loaded into AWS S3.&amp;nbsp;&lt;/span&gt;&lt;/li&gt;&lt;li&gt;&lt;span style=&quot;&quot;&gt;Amazon Athena: Allow one to query metadata and statistics of file storage in S3&lt;/span&gt;&lt;/li&gt;&lt;/ol&gt;&lt;/span&gt;" style="rounded=1;whiteSpace=wrap;html=1;align=left;labelPosition=center;verticalLabelPosition=middle;verticalAlign=middle;spacingLeft=5;spacingRight=5;spacing=1;" vertex="1" parent="1">
          <mxGeometry x="680" y="1240" width="470" height="370" as="geometry" />
        </mxCell>
        <mxCell id="B7DCt7BBjTlzGBBhd7W7-44" value="" style="shape=image;verticalLabelPosition=bottom;labelBackgroundColor=default;verticalAlign=top;aspect=fixed;imageAspect=0;image=data:image/png,iVBORw0KGgoAAAANSUhEUgAAARkAAAC0CAMAAACXO6ihAAAA+VBMVEX///+IU+WTW/CNV+qFUeKPWOz8+/6BTt6GUeN+TNuUXfKZYPeZYPYwMDCMVuqdY/soKCgcHBzMzMwiIiL38/0nJyfm5ubx6/0tLS3u7u7GxsYzMzMAAAB5SNaamppHR0fv5v08PDyFTeWzs7PXxPlZWVnl2/nW1tYWFhaqqqrr6+tcXFxNTU2Li4t2dna8vLzezfuxk+xsbGzEqvWNUu6xludxcXGCgoJ/QeSVYey6m/afeOh9R96QkJCdbu6pd/tuM9StifCXZu3Lt/HTuf+cXf+JTe2rfvaxive5lfiqf/Tp3vvBo/bEq/Pf0fiYa+qmhuaPYeNlJc9586h5AAANzklEQVR4nO3cDVvayrYH8FFKUNtw80LChHCICWLCu6Y5UhQ8V92XVrfa7vv9P8xZayYJCeLu7q7n6DOd//OIAsaaX2fWvCQtITIyMjIyMjIyMjIyMjIyMjIyMjIyMjIyMjIyMjKi5fBF03jt03m5KPPL7+Zffz2/vfb5vFyUT/V1qtUqfOw+zfst+Z8t+b+Pr30+LxeQqVQq9WqlUk2z9jg4wI80HyDv3/OH52AEk6n8AM2H79AIJvMjNN9pNaLJvByNWDL1H6P50w4lnsxLtRqxZHbqL9dqhJP5QZrnW41gMj9O82yrEU3m5WiEk3mxDiWezFaaZJVspUlW759rNQLK8AGqQFNP6vfH51todudHj59XyfutrUZEmdQGH4Cmnlw+KIQ0L6tPaJJzOOrxy4dkG42oMnmHWs0fmvhm87L+pNYwGaI83ibJUxoxZTKaevD1YwPP/UEBmSdlGGSa9+h2ePUBbUo0gsowmvrq+jc4b+Xo9tMpk9mkQZkPBx9/h2OPz98n70s0osoATVBh/ejoLgmScy6zQYMy893k+vwQDv79FkvxmkZYmb3rB+hHjaPLVb1eBZlDJlOm4TLweXV+TFi7KdCIJbO3lpk/witHF0GA9WYtU6JJZbAWf8B2Q24LHUowmZwmuGiQkyDAagM0eW8q06xlwCb50iRHyboMiyXzLqdBmdMgG7yD07VMgaYoc/B+dcJkMhrBZHKaTIbTlGSq22UOEpRZz2vEktnLabhMNq9hMgEuFNiFKPjEYLbIrNdQgsnkNKlMSoMyt5fQeD7f3V1Xq5d3d5e7u9d3nz+izG5ZJqMRS+ZdTpPJcBqQgRF8Xp/DQH6fzGFqd5Mk7OosyuwWZfKVt2AyOU0uw2hARmk+gsxjs3mbHBw1mx/ryX2z2eDzmd2yDKcRTSajWcsgTXBKjutYj5MkgUIDj8nubh0meLzOpCvvVCZtNcLJpDQFmR0uU2GbEtXiLh+vwPnKG2XWu3ziyXCaosxOLpNtZaULhVQmW3kzmXxvOBFPhtGUZHa4TE5zd5kwmkwmXXlzmYxGRBmkeSozr+N+DTSX+vz3xj2Wm2ouw1feqUxKI6QM0Oxtl7mdQxX+Qsjd3eekKMNW3pkMpxFTZqPOZL1p9UBO5vXVDVHmh80vq6LMus5kNGLJ1HKaLTIBbkw8XtfrDXJzpeCUryizW5Q5EFiG96a9osxXgDmBNRSoXCVXMBv+yGTyBWZR5kA4mdqGzN5apn5PyBHOh4/I79f15HOTNC6flzkQTqZWkslX3iCzA22lebWqfz0kN0E9uVHI8fVTmfWFXaFk/reW06Qy2cqbVeBvCmncBldE+RLMjwg5vOa9qVqS2RVXhtPUeG/KVt4osxNcNoHjhDRXAfaspJ7KVNcyq/U1bwFlanmbWeQrbyazE3x9vPikYGeq3PwGq4VMplqsM/mmhIAyaMNl8pU3l9kJguCWkM8BjFAJu9iSylTzNrO+HUBwmWzlncqAzWO66q6ziy0gk19s4TLrTQkhZWq8zizylTfK8GHq4uQ+yG4HKMhU8wqcb0qIKVNbZDJ85b2WCYL8ikIlKMhUc5lsU0J4GbbyXstkG6DsYktRppr2pnxTQiiZ/TXNWiatMzu4itoL0kcsM8HqFGUqT2T4psQvIIN1Rjm8vdrZ27m6+vZ1p3Lx7fayXr+8vbphMpUnMmxTQiyZ/f1tMu/YVZXmfG/eJOQ8mB8TmNMED3gM9qaUpigjXJ1ZyyxKMotTRWkcg8xxo3EaVE4ajYcguG+wqyr1jKYkI1yd2c9tNmWO/5jDlG/+xzXMa+bX13N8nN+z3pTSlGXE600ZDZOp5TJQgfdwE3SvcIsNXlJgdYbTMJnqryJTK8m8K7oUZDgNl6mKLIM2+6lMrSDzhIbLZDSpTFVwmUUmUyvIbNKkbYbTZG0m35QQUmZ/n8l8WqTry7zOlGnyOsPu5Vs9pjJV4WUOHy4+LXKZd3vvNmlyGZgOV26PGuRktb4rS1SZ/Rre26k0bi7eLRY1JrO+HWCjzgT166vHBswFyV1SuB1AVJn92j+P2D84OL65evcJ5jPYZjZoUKay+np6gv85hnL88Dkp3Ckhrsz+YvH12wm2hEbz5oGkMiUalLl/ZH6HHz/Pk9I/FRNL5h8lmv3aYrH4dnLI3sxkijQgg2kcP1x/4svvAo1gMmUatoBa/HF6A73lcS+/FLVXuNgCb9xfVPJdvgKNaDKbrYbjLC4e/ihc2c1o9nbuzytBEJT/qVhFUJltNKizvrBbpAnyG9aetBrxZJ6hqW2lebIBuqYRUOaFaESUeVqG/w6NkDLPt5otZbhoU6QRU+YlWo2gMn+v1pRajagyP1+GhZX5aRpxZX6WRmCZn6QJBJb5qTJcF0rm/xd/I8Ez+SSSzOk//3bun+T85LXPR0ZGRkZGjCi2/dq/whtNXzP7r/07vMk4Z5bVe+1f4k0mpKNYC1/7t3iLWUb9vt7hXzsD+AgNrDtKaIQOe3EQGq1QYW9nYa/bhsFBFXwBvks0XjdyDHfITzYe2f2eT0djMh361I/xjJcjT9O8GE7bmfUww+EZwScjqvoTRAyHY3s5cqm/dF71TF44rQjOM9YN9sTTXG/WmWlmT510lr4+g9PunY37nZ7pAsY4hpz5WJZCzxyOO7Fugpihutpo1jlzI6Eq+VjvEtKJZuyJZy6xEQy1IfaMvg5NybGxI9m+afDepBi+2SJkZmKDciZ6DDKu24duSCbm5BVP5KVjeyOwGOg6e+bpU/zU0dkpGtEw7x5nyMEO6GlA6UQ6qyq27xsgM7ILhwmSqc5ayxBbznMyYWgPJplM3F7CY0vX2DMnNruCysTm2Gi1WjPzDDvNNpnpyPd9z9e4zBLLEoJ67KlzFgkqY5u0jYk0H3vHFpmp5ne63c7IYjJ9jTejqe6z48WVgSJrh5iYrRC2yEz40oHXmZZq8jVWGOl8hjPUpkLKKD1OQUjXHJFtMo7HGosSo0zo+9lszudgUw1QRJQxXC9dZ/PB5qkMkMwUYo9dqDNOrE1ahmG0YADvR97UIS0vWhIhZcbtWfblEL/021ymzcpsq91ziOHrVNOGcbtFbKqbOiSCGqN0VJ1SU8PjDZP7dtrxq5zFfyDKtJuvdcIuoEy7Nv+alVu7P4ViEi7j5dQJ4R2nm4bxGcs4nrXYNLA7dQqH/UJRnntdee4dGRkZGRkZmZ8KLKmzCW+LhW/uEgUW26VtSiXsQ+xfZkietvWIbx0QQ2eJ3DFO9GBqqxemaE7fi0xI5G3O23DTXESuM+q6Om80huu6mmlZqtVTcF9OVY3825QzU6WWBe/qm7u6zpAOhdoD5wl91XetJfvacFW322r1XdVcbsgoE9OlZ/Bmqz/rbvwI29VElOlSa2nRHjszkPFxS3us0dgpy4Sqao7TLsO+VzGg5vDlVMukwzC9CD7lLyq2zerRgL8Mn/CgsAvvso7KnxPHfrvXzp1Y8+0RdVntQBn8TadwqoOyzExL9dJ0XKpZGlX7xB6p0AldFWuV0dMsU1M7xO5R3Kixeyru39ge7mxNXRUP0cZEianGt5np2710bqtarHQs3p0ymf5TGV+1OsXj4rbqeS5V3UFomq5L9baL/U+jw9in1pSMLTz30FWtMW5HIGunTT3P11RqkK5GETL0aDT4757vX0/f1DokpHSEDYLJKMpgpOJplWRM18K/XRy2+1343m7LcRx7SPUuDFoW9KYBnOLEsvqKYvjakEzhR+KOoEp7+Icga2s6gGPOqNnBRhTBXwF80/D1Tv078ahrkEGPsvEZxybP86CT0HBDRldV3H1pw7Ctj/La0LewN3RNPjbZHmX74z1KiQPIIYm1IYVWGKe9FdMysX3O8A4UBR7f7M4NFFZs1ktNww1JNmpbMDSrOPyUZVy80EbaOgxRPSZjdLutsVaUwWFuNpnMfFWH7qYBpWr2fTolWY2CCtzqs55r6HRCnBEdvdkC3NFUbzabDVUoGHzUnsxmyy47j5KMm9UZJWIyhhdF7bbpbsioEUTXXaziVseOLOdMX9oRVF34eSM8ROdThBH17DDSlq9x0n8lDrRzCh1EU13aXY/aPCWZMzaQ4yFMZjDS6LjVjWlZho4Mtr6Awwa+NumYQ9LRz/oW3jjgxFCUp9MJZTIdkxodi77ZzmRoqo/3McQeq7nZ2MRTkmnx5pHJTFllTetMP68zqpYfrUysXg8mjC3VG1JoQ6yvkazOwLBkjUdYpN9olpbGL3j0TdWz/0wG5j2qNm6FIUzrQKbLhh6FFVLS0lVvaoesYeGKywlxNteFVYfVwrKsss6EXRU+ZTOEiea7Zmki8KZCVYtP9W3qskv0z8pAlbBUzfV9X9V6zFCdzHoqa0i2pqq+Z+ENbJT6veHIx2lc6KnqKMTZnMs6DcwnaTyLVZXLTE1XpW+2/k7bkcsvnzjDCBbchh6ZBRktigp1YDD2dByztV4fus7StMxoNDHbbJYDtYrdT2IMIwu+NNm5w4/E0jRuR/yyUxcP8Wdue8x+HhDP3uwKfRCG2fYBXsXGblDYTlDgWWmhaLdwmheyGq0Y41nfhgPYMxiO+RLKmS5n4z5fFMGPtPkfkmqHy1nHVrKnsN7YXJrKYBSNjt7syuD1Yk+7Z9Saff8bf7nAgolqvoB7Oj8dw2ubsWi3Cb9IFGcweLPjkoyMjIyMjIyMjIyMjIyMjIyMjIyMjIyMjOD5N8dTm0fPTuBrAAAAAElFTkSuQmCC;" vertex="1" parent="1">
          <mxGeometry x="340" y="860" width="122.74" height="78.63" as="geometry" />
        </mxCell>
      </root>
    </mxGraphModel>
  </diagram>
</mxfile>
